<?xml version="1.0" encoding="UTF-8"?>
<svg version="1.1" xmlns="http://www.w3.org/2000/svg" width="270" height="201">
<path d="M0 0 C89.1 0 178.2 0 270 0 C270 66.33 270 132.66 270 201 C180.9 201 91.8 201 0 201 C0 134.67 0 68.34 0 0 Z " fill="#FEFEFE" transform="translate(0,0)"/>
<path d="M0 0 C6.64764539 1.76366102 10.65505504 7.16992849 14.03173828 12.87890625 C14.45438965 13.62011719 14.87704102 14.36132812 15.3125 15.125 C16.25045153 16.71611468 17.19061976 18.30592436 18.1328125 19.89453125 C18.84872559 21.10810303 18.84872559 21.10810303 19.57910156 22.34619141 C22.46657348 27.14692236 25.55532304 31.81784695 28.62207031 36.50512695 C31.97834575 41.64419151 31.97834575 41.64419151 33.0625 43.8125 C33.7225 43.8125 34.3825 43.8125 35.0625 43.8125 C36.69411665 41.76236459 38.20111746 39.71483555 39.6875 37.5625 C40.129729 36.93077881 40.57195801 36.29905762 41.02758789 35.64819336 C42.38040503 33.70827254 43.72215484 31.76105229 45.0625 29.8125 C45.45904785 29.24225098 45.8555957 28.67200195 46.26416016 28.08447266 C52.09426327 19.69063522 56.16044107 13.09597186 57.0625 2.8125 C60.10396988 1.9394855 62.90035259 1.62034416 66.0625 1.5625 C66.908125 1.53671875 67.75375 1.5109375 68.625 1.484375 C71.59624846 1.88435075 72.92622871 2.73435854 75.0625 4.8125 C76.26984761 11.38583699 73.54419916 16.4248707 70.0625 21.8125 C67.03189966 25.78767068 63.70888602 29.51581924 60.40527344 33.26367188 C57.82357456 36.24154418 55.42268916 39.36368499 52.9921875 42.46484375 C50.31899415 45.71704862 47.39827714 48.7199306 44.43359375 51.70703125 C42.7998418 53.73120096 42.7998418 53.73120096 43.31713867 56.19824219 C44.08149714 58.87913 44.97601785 60.51251425 46.6171875 62.74609375 C47.14425293 63.47086914 47.67131836 64.19564453 48.21435547 64.94238281 C48.78299316 65.70389648 49.35163086 66.46541016 49.9375 67.25 C50.52031738 68.04116211 51.10313477 68.83232422 51.70361328 69.64746094 C53.47822274 72.04479961 55.2676844 74.43026289 57.0625 76.8125 C57.58328125 77.50811035 58.1040625 78.2037207 58.640625 78.92041016 C66.47423965 89.84904123 66.47423965 89.84904123 77.0625 97.8125 C76.72594834 104.31916545 75.68380425 107.19119575 71.0625 111.8125 C67.92378812 113.38185594 65.52394178 113.16451103 62.0625 112.8125 C58.26774043 109.53248699 55.64757656 105.92158198 53 101.6875 C52.62713867 101.09638428 52.25427734 100.50526855 51.87011719 99.89624023 C50.59477635 97.87211581 49.32877898 95.84230442 48.0625 93.8125 C46.50824366 91.33529338 44.95154543 88.85965239 43.39282227 86.38525391 C42.36328662 84.74989387 41.33630019 83.11292532 40.31225586 81.47412109 C37.37717336 76.79949297 34.31627823 72.27160118 31.0625 67.8125 C14.79620095 87.92987331 14.79620095 87.92987331 6.0625 111.8125 C2.71377689 112.70549283 -0.5510358 112.96061036 -4 113.0625 C-4.83660156 113.08828125 -5.67320313 113.1140625 -6.53515625 113.140625 C-9.60970303 112.7206869 -10.87728209 112.15344045 -12.9375 109.8125 C-13.77317216 104.21015383 -12.24464292 100.69336191 -9.125 96.1875 C-8.72555176 95.58921387 -8.32610352 94.99092773 -7.91455078 94.37451172 C-3.40837319 87.77896459 1.77479829 81.78534598 7.0625 75.8125 C7.701875 75.07386719 8.34125 74.33523437 9 73.57421875 C13.60875133 68.25068423 18.34164892 63.03648033 23.0625 57.8125 C21.46035869 52.71749161 18.36418839 48.96246264 15.125 44.8125 C14.54741943 44.06645508 13.96983887 43.32041016 13.37475586 42.55175781 C2.73276096 27.15733464 2.73276096 27.15733464 -11.9375 16.8125 C-10.12626974 9.80589872 -7.62859517 2.11003696 0 0 Z " fill="#ED1E26" transform="translate(101.9375,47.1875)"/>
</svg>
