<?xml version="1.0" encoding="UTF-8"?>
<svg version="1.1" xmlns="http://www.w3.org/2000/svg" width="840" height="840">
<path d="M0 0 C277.2 0 554.4 0 840 0 C840 277.2 840 554.4 840 840 C562.8 840 285.6 840 0 840 C0 562.8 0 285.6 0 0 Z " fill="#FEFEFE" transform="translate(0,0)"/>
<path d="M0 0 C0.79736069 -0.0071553 1.59472137 -0.01431061 2.41624451 -0.02168274 C3.28225281 -0.02437164 4.14826111 -0.02706055 5.04051208 -0.02983093 C5.95976974 -0.03640213 6.8790274 -0.04297333 7.82614136 -0.04974365 C10.86822089 -0.06945112 13.91025103 -0.08113573 16.95237732 -0.09111023 C17.99410536 -0.09518576 19.0358334 -0.09926128 20.10912895 -0.10346031 C25.62661922 -0.1243136 31.1440847 -0.13861662 36.66160583 -0.147995 C42.34182737 -0.15903714 48.02165478 -0.19341407 53.7017374 -0.23316669 C58.08486627 -0.2594019 62.46790237 -0.26769313 66.85110283 -0.27127647 C68.94372649 -0.27612726 71.03634643 -0.28769786 73.1288929 -0.30631447 C88.84198065 -0.43738054 100.74440467 0.51131249 112.63206482 11.73701477 C119.64942246 19.17436389 121.65830739 29.17298477 123.69847107 38.89717102 C123.94307068 40.02590637 124.18767029 41.15464172 124.43968201 42.31758118 C125.8229463 48.73548295 127.16201173 55.16257432 128.50114441 61.58979797 C128.86160892 63.31953967 129.22248889 65.04919484 129.58378601 66.77876282 C130.47372749 71.03916577 131.35871105 75.30044732 132.23265076 79.56416321 C132.55965703 81.14134113 132.88679919 82.71849088 133.21409607 84.29560852 C133.35971985 85.01535858 133.50534363 85.73510864 133.65538025 86.47666931 C134.43551322 90.21040979 135.40016617 93.65797351 136.94847107 97.14717102 C140.03464996 98.07884767 141.79582059 98.49356096 144.94847107 98.14717102 C147.84190693 96.53919472 150.28683139 94.61623468 152.88206482 92.56123352 C156.00939587 90.09920729 159.24579777 87.88487557 162.57347107 85.70967102 C170.78065934 80.29189689 178.90364919 74.75111813 187.02903748 69.21186829 C190.00025079 67.18744542 192.97407108 65.16690776 195.94847107 63.14717102 C197.24011169 62.26424377 197.24011169 62.26424377 198.55784607 61.36347961 C199.73733826 60.5641803 199.73733826 60.5641803 200.94065857 59.74873352 C201.61725525 59.28805481 202.29385193 58.8273761 202.99095154 58.35273743 C211.27714363 53.24956749 220.66974993 52.96547946 230.06175232 54.73310852 C242.98025952 58.38581224 251.60944625 68.65309816 260.72581482 77.92060852 C263.69780997 80.92607402 266.80038685 83.71417668 270.02659607 86.44404602 C273.34621061 89.38581826 276.4025781 92.59464106 279.51878357 95.74873352 C281.56336524 97.76701832 283.63683125 99.6621662 285.82347107 101.52217102 C289.97102731 105.06399897 293.76422163 108.92245218 297.58323669 112.81025696 C300.21739246 115.47629105 302.86657809 117.97090841 305.82347107 120.27217102 C312.92310553 126.17406764 316.3104201 134.71681362 317.19847107 143.66670227 C317.73977407 155.4907896 313.03631693 164.96590831 306.26097107 174.33467102 C304.92434627 176.23783434 303.58843829 178.14150124 302.25315857 180.04560852 C301.20466736 181.52625793 301.20466736 181.52625793 300.13499451 183.03681946 C296.31862735 188.46564009 292.60845025 193.96625223 288.88597107 199.45967102 C287.49926762 201.49744185 286.11254956 203.53520273 284.72581482 205.57295227 C284.09014587 206.51864075 283.45447693 207.46432922 282.79954529 208.43867493 C281.59377092 210.20296677 280.35690112 211.94652701 279.0856781 213.66426086 C275.80512963 218.04708225 275.80512963 218.04708225 274.88206482 223.29170227 C276.10586808 226.56862603 277.46807929 229.69417499 279.01097107 232.83467102 C281.94847107 238.82717102 281.94847107 238.82717102 281.94847107 242.14717102 C282.66897644 242.19701645 283.38948181 242.24686188 284.13182068 242.29821777 C291.66657604 242.86638123 299.05871559 243.83857705 306.51097107 245.07295227 C307.66411804 245.26181503 308.81726501 245.4506778 310.00535583 245.64526367 C312.42594154 246.0436671 314.84610473 246.44464553 317.26585388 246.84809875 C320.93704702 247.45777383 324.61055503 248.05181346 328.28440857 248.6452179 C330.6517542 249.03684135 333.01894718 249.42938886 335.38597107 249.82295227 C336.46757507 249.99603409 337.54917908 250.16911591 338.66355896 250.34744263 C352.3145015 252.66292581 362.90696012 256.01805918 371.60862732 267.29951477 C376.15289442 274.20203126 377.24739507 280.52049297 377.23899841 288.64985657 C377.24571564 289.58891342 377.25243286 290.52797028 377.25935364 291.4954834 C377.27830835 294.59167312 377.28225694 297.68764567 377.28440857 300.78388977 C377.29083951 302.94614754 377.29756809 305.10840444 377.30458069 307.2706604 C377.31654806 311.80235306 377.32026219 316.33396953 377.31907654 320.86567688 C377.31887367 326.65124074 377.3461449 332.4363116 377.38062096 338.22175884 C377.40294474 342.68896697 377.40691235 347.15605763 377.40585709 351.62331581 C377.40820598 353.75500495 377.41698907 355.88669768 377.43252182 358.01833153 C377.53247413 373.15560265 377.14393899 385.72868581 365.94847107 397.14717102 C355.04790352 406.87516756 338.07523835 408.31201346 324.19847107 411.14717102 C320.97408549 411.81177868 317.75032621 412.47939252 314.52659607 413.14717102 C313.74030823 413.30927063 312.95402039 413.47137024 312.14390564 413.63838196 C305.59426707 414.99498487 299.06558703 416.43873701 292.54496765 417.92842102 C287.15933966 419.14717102 287.15933966 419.14717102 284.94847107 419.14717102 C284.85952576 419.79556946 284.77058044 420.4439679 284.67893982 421.11201477 C283.50582156 425.98641523 281.29752635 430.44932422 279.21214294 434.9967804 C278.89438904 435.72832336 278.57663513 436.45986633 278.24925232 437.21357727 C277.95188171 437.87301331 277.65451111 438.53244934 277.34812927 439.21186829 C276.65237682 442.58097621 278.60097076 444.60755141 280.37791443 447.36689758 C280.92584656 448.16579407 281.47377869 448.96469055 282.03831482 449.78779602 C282.6523114 450.68554749 283.26630798 451.58329895 283.89891052 452.508255 C284.5546405 453.46159729 285.21037048 454.41493958 285.88597107 455.39717102 C286.56039246 456.38209534 287.23481384 457.36701965 287.92967224 458.38179016 C291.42018159 463.4765507 294.92211653 468.56342786 298.42723083 473.64814758 C300.17202448 476.1814998 301.91188714 478.71820807 303.65013123 481.25605774 C304.54290639 482.55644067 305.4385795 483.85483726 306.33665466 485.15156555 C307.71538215 487.14465823 309.08288272 489.14506049 310.44847107 491.14717102 C310.85815125 491.73425842 311.26783142 492.32134583 311.68992615 492.92622375 C317.77890441 501.92249451 319.09174014 510.30276435 317.94847107 521.14717102 C315.67570545 530.38096756 310.58059279 536.56914491 303.94847107 543.14717102 C303.18921326 543.93092102 302.42995544 544.71467102 301.64768982 545.52217102 C298.28211336 548.9633131 294.84983061 552.24536161 291.20237732 555.38545227 C286.73675879 559.26785302 282.59291025 563.42724115 278.44847107 567.64717102 C273.74327151 572.43807549 268.98300477 577.03651247 263.89085388 581.41426086 C261.26928884 583.75310811 258.85256172 586.26127956 256.41893005 588.79292297 C247.33795979 598.22468611 238.33132591 606.23273921 224.60862732 606.61592102 C223.85452576 606.62623352 223.10042419 606.63654602 222.32347107 606.64717102 C221.22712341 606.70904602 221.22712341 606.70904602 220.10862732 606.77217102 C205.11080062 606.97939488 190.80067001 593.54110292 179.07347107 585.52217102 C177.10778535 584.18555661 175.14164286 582.84961368 173.17503357 581.51435852 C169.57598461 579.06978851 165.97978986 576.62113386 162.38645935 574.16816711 C161.23565384 573.38683662 161.23565384 573.38683662 160.06159973 572.58972168 C158.73823228 571.68631025 157.42065331 570.77429377 156.11195374 569.84976196 C153.0630022 567.6256933 153.0630022 567.6256933 149.39378357 567.26826477 C145.95798303 568.50317711 142.61012567 569.87372886 139.25315857 571.30732727 C136.94847107 572.14717102 136.94847107 572.14717102 133.94847107 572.14717102 C133.85348328 572.69382416 133.75849548 573.24047729 133.66062927 573.80369568 C131.2938015 587.3344708 128.63435753 600.77055479 125.59397888 614.16621399 C124.93818303 617.06768898 124.29874334 619.97249869 123.65940857 622.87763977 C123.23591375 624.75676813 122.81147071 626.63568311 122.38597107 628.51435852 C122.10765442 629.79256973 122.10765442 629.79256973 121.82371521 631.09660339 C119.36161944 641.75238097 114.35369115 650.78518197 105.07347107 656.95967102 C97.71297374 661.0687059 90.83656056 662.59660058 82.45652771 662.53535461 C81.55444077 662.54061157 80.65235382 662.54586853 79.72293091 662.55128479 C76.7679821 662.56438996 73.81358074 662.5557797 70.85862732 662.54560852 C68.78794248 662.54763216 66.71725834 662.550546 64.64657593 662.55430603 C60.31688113 662.55871671 55.98737264 662.55233947 51.65769958 662.5382843 C46.12888513 662.52120406 40.60050802 662.53103443 35.07170963 662.54900169 C30.79840853 662.55988265 26.52520976 662.55637326 22.25190544 662.54861832 C20.21430343 662.54662766 18.17669191 662.54903538 16.13910103 662.55605698 C13.28242284 662.56374148 10.42643613 662.55196948 7.56980896 662.53535461 C6.7409317 662.54142731 5.91205444 662.5475 5.05805969 662.55375671 C-5.89429689 662.43672426 -15.04097906 658.77760707 -23.02809143 651.29560852 C-30.31498934 643.51258139 -32.63418079 634.8969745 -34.12184143 624.53388977 C-34.28900665 623.44308609 -34.45617187 622.35228241 -34.62840271 621.22842407 C-35.15645221 617.76553019 -35.66691016 614.3003202 -36.17652893 610.83467102 C-36.52559569 608.52003757 -36.87584576 606.20558224 -37.22731018 603.89131165 C-37.72498937 600.61201303 -38.22107448 597.33257742 -38.70780945 594.05163574 C-39.00094598 592.0766517 -39.29827162 590.10228408 -39.60014343 588.12861633 C-39.91855211 586.02549589 -40.22188895 583.92006666 -40.51438904 581.81318665 C-40.75320297 580.19416443 -40.75320297 580.19416443 -40.99684143 578.54243469 C-41.13509338 577.56417221 -41.27334534 576.58590973 -41.41578674 575.57800293 C-41.88577527 572.84913842 -41.88577527 572.84913842 -44.73121643 570.81123352 C-45.78566956 570.4683429 -46.84012268 570.12545227 -47.92652893 569.77217102 C-48.97582581 569.39318665 -50.02512268 569.01420227 -51.10621643 568.62373352 C-55.41237777 567.92698063 -56.88988542 569.33023476 -60.32887268 571.74873352 C-61.20672424 572.4164679 -62.08457581 573.08420227 -62.98902893 573.77217102 C-63.49136047 574.15260559 -63.99369202 574.53304016 -64.51124573 574.92500305 C-66.36122448 576.3282118 -68.20665006 577.73726359 -70.05152893 579.14717102 C-71.69472704 580.40242001 -73.33795851 581.65762534 -74.98121643 582.91279602 C-75.8581012 583.58262512 -76.73498596 584.25245422 -77.63844299 584.94258118 C-81.26080561 587.70640102 -84.88838929 590.46331026 -88.51734924 593.21846008 C-90.11606785 594.43521124 -91.71214544 595.6554477 -93.30445862 596.88056946 C-107.29762106 607.64605449 -107.29762106 607.64605449 -116.05152893 610.14717102 C-116.71281799 610.33666321 -117.37410706 610.5261554 -118.05543518 610.72138977 C-127.3832094 612.71107155 -137.14737174 610.25989723 -145.05152893 605.14717102 C-147.99541207 602.78781341 -150.74014232 600.24610247 -153.47193909 597.64570618 C-155.30331106 595.90830878 -157.15141979 594.18965946 -159.00074768 592.47138977 C-164.90183644 586.97654524 -170.78384343 581.48410816 -176.43482971 575.73042297 C-178.14161714 574.05894661 -179.91795872 572.50520277 -181.73902893 570.95967102 C-185.9153774 567.3672004 -189.7494865 563.47792618 -193.6174469 559.5617218 C-196.44865154 556.70896661 -199.31474501 553.95764729 -202.36402893 551.33467102 C-209.08532565 545.54766243 -214.22350172 540.26201523 -218.05152893 532.14717102 C-218.60260315 531.02762024 -218.60260315 531.02762024 -219.16481018 529.88545227 C-220.34498095 526.24096017 -220.41977725 522.75074062 -220.42652893 518.95967102 C-220.45102112 518.25519836 -220.47551331 517.55072571 -220.50074768 516.8249054 C-220.55841284 506.2049044 -214.85062805 497.71280803 -209.39515686 488.96714783 C-208.27579687 487.1683192 -207.17033133 485.3615879 -206.06813049 483.55220032 C-202.57875774 477.83126823 -199.05558524 472.13536953 -195.44953918 466.4871521 C-193.91316687 464.06961806 -192.40115709 461.6374093 -190.89320374 459.20207214 C-189.82262362 457.49333985 -188.71907221 455.80540739 -187.61500549 454.11811829 C-184.12258006 448.77504501 -184.12258006 448.77504501 -183.19532776 442.6620636 C-183.94529254 440.32748377 -184.89745149 438.30781799 -186.05152893 436.14717102 C-186.60053171 434.78940671 -187.13618597 433.42615273 -187.65699768 432.05732727 C-188.45382035 430.10757106 -189.25901454 428.16143151 -190.06520081 426.2155304 C-192.05152893 421.35176454 -192.05152893 421.35176454 -192.05152893 419.14717102 C-192.77565979 419.03687561 -193.49979065 418.9265802 -194.24586487 418.8129425 C-201.70409042 417.63000037 -208.979045 416.04272805 -216.30152893 414.20967102 C-223.37974681 412.4703173 -230.43464547 410.78707957 -237.61402893 409.52217102 C-268.29348438 403.99086459 -268.29348438 403.99086459 -277.00074768 392.59638977 C-277.57438049 391.68502258 -278.14801331 390.7736554 -278.73902893 389.83467102 C-279.32039612 388.93103821 -279.90176331 388.0274054 -280.50074768 387.09638977 C-283.91971886 380.59431611 -284.34951971 374.72427063 -284.34205627 367.51509094 C-284.3487735 366.57428177 -284.35549072 365.6334726 -284.3624115 364.66415405 C-284.38133552 361.56859486 -284.38531288 358.47325313 -284.38746643 355.37763977 C-284.39389824 353.21441562 -284.40062688 351.05119232 -284.40763855 348.88796997 C-284.41959733 344.3580575 -284.42332081 339.82822121 -284.4221344 335.29829407 C-284.42193129 329.51153994 -284.44923139 323.72527737 -284.48367882 317.93863964 C-284.50598427 313.47147403 -284.50997082 309.00442605 -284.50891495 304.53721046 C-284.51126548 302.40469481 -284.52005795 300.27217565 -284.53557968 298.13971519 C-284.55531322 295.14861098 -284.54937256 292.1585581 -284.53736877 289.16743469 C-284.55422729 287.86330124 -284.55422729 287.86330124 -284.57142639 286.53282166 C-284.46796967 276.31886167 -280.54916476 268.64635244 -273.50074768 261.40498352 C-267.00748116 255.41916526 -260.91035553 252.85146545 -252.34059143 251.19013977 C-251.4767836 251.01924332 -250.61297577 250.84834686 -249.72299194 250.67227173 C-242.57738902 249.31643332 -235.40782761 248.39376564 -228.18824768 247.53388977 C-224.83756062 247.11027835 -221.48753074 246.68182933 -218.13771057 246.25141907 C-215.85126405 245.97105385 -213.56194419 245.71329218 -211.27052307 245.477005 C-198.98060666 244.75631614 -198.98060666 244.75631614 -188.32698059 239.54811096 C-185.36742035 235.41884747 -184.09124134 231.07221233 -183.05152893 226.14717102 C-182.81337463 225.23499817 -182.57522034 224.32282532 -182.32984924 223.38301086 C-181.8656729 219.65412755 -184.06551316 216.99556823 -185.98902893 213.95967102 C-186.42851868 213.23989075 -186.86800842 212.52011047 -187.32081604 211.77851868 C-188.31911559 210.14844174 -189.32457379 208.52273546 -190.33570862 206.90058899 C-192.22592729 203.8673098 -194.09675749 200.82257611 -195.96559143 197.77607727 C-198.72606505 193.28020575 -201.49002655 188.78652153 -204.25856018 184.29560852 C-204.91034241 183.238255 -205.56212463 182.18090149 -206.23365784 181.09150696 C-207.3483294 179.28611627 -208.46477483 177.48181748 -209.58424377 175.67939758 C-212.15250863 171.54312969 -214.65531796 167.38577762 -217.05152893 163.14717102 C-217.52203674 162.32603821 -217.99254456 161.5049054 -218.47731018 160.65888977 C-222.59259982 152.24446594 -222.64040044 141.07488395 -220.23902893 132.11592102 C-217.21834066 125.48718844 -212.09355123 120.30239934 -207.05152893 115.14717102 C-206.43922424 114.50779602 -205.82691956 113.86842102 -205.19606018 113.20967102 C-202.36106244 110.30331179 -199.42208187 107.57840038 -196.33668518 104.94013977 C-192.04069724 101.19799515 -188.03929735 97.21282554 -184.05152893 93.14717102 C-180.15661222 89.17618172 -176.26322591 85.27535271 -172.04371643 81.64717102 C-168.57018692 78.65678251 -165.35899814 75.48360097 -162.16700745 72.19673157 C-152.2119949 61.9462311 -142.71338094 52.30539272 -127.67652893 51.77217102 C-111.80556499 52.32478119 -101.22056329 61.09629033 -89.24220276 70.5280304 C-82.84734569 75.5617012 -76.34849246 80.43581905 -69.75904846 85.21186829 C-66.25821545 87.75359389 -62.8088354 90.30193641 -59.50465393 93.09638977 C-54.52281602 97.56993642 -54.52281602 97.56993642 -48.32496643 99.24482727 C-46.04619904 98.76155926 -44.17547074 98.07205498 -42.05152893 97.14717102 C-42.11267883 95.35340027 -42.11267883 95.35340027 -42.17506409 93.52339172 C-42.1682007 86.96749881 -41.09067627 80.5906827 -40.07496643 74.12763977 C-39.86511193 72.77919917 -39.65528375 71.43075446 -39.44548035 70.08230591 C-39.00521266 67.26671218 -38.55863933 64.45219429 -38.10865784 61.63813782 C-37.53905952 58.06740501 -36.99446163 54.49334265 -36.45583153 50.91782665 C-36.03179355 48.13316551 -35.5895563 45.35160326 -35.14261246 42.57053566 C-34.83448413 40.62522793 -34.54492435 38.67700729 -34.25596619 36.72875977 C-32.26948859 24.68255333 -28.02484852 13.73251268 -18.05152893 6.14717102 C-12.29696863 2.68056843 -6.79248376 0.04207118 0 0 Z " fill="#FEFEFE" transform="translate(373.05152893066406,87.85282897949219)"/>
<path d="M0 0 C0.79736069 -0.0071553 1.59472137 -0.01431061 2.41624451 -0.02168274 C3.28225281 -0.02437164 4.14826111 -0.02706055 5.04051208 -0.02983093 C5.95976974 -0.03640213 6.8790274 -0.04297333 7.82614136 -0.04974365 C10.86822089 -0.06945112 13.91025103 -0.08113573 16.95237732 -0.09111023 C17.99410536 -0.09518576 19.0358334 -0.09926128 20.10912895 -0.10346031 C25.62661922 -0.1243136 31.1440847 -0.13861662 36.66160583 -0.147995 C42.34182737 -0.15903714 48.02165478 -0.19341407 53.7017374 -0.23316669 C58.08486627 -0.2594019 62.46790237 -0.26769313 66.85110283 -0.27127647 C68.94372649 -0.27612726 71.03634643 -0.28769786 73.1288929 -0.30631447 C88.84198065 -0.43738054 100.74440467 0.51131249 112.63206482 11.73701477 C119.64942246 19.17436389 121.65830739 29.17298477 123.69847107 38.89717102 C123.94307068 40.02590637 124.18767029 41.15464172 124.43968201 42.31758118 C125.8229463 48.73548295 127.16201173 55.16257432 128.50114441 61.58979797 C128.86160892 63.31953967 129.22248889 65.04919484 129.58378601 66.77876282 C130.47372749 71.03916577 131.35871105 75.30044732 132.23265076 79.56416321 C132.55965703 81.14134113 132.88679919 82.71849088 133.21409607 84.29560852 C133.35971985 85.01535858 133.50534363 85.73510864 133.65538025 86.47666931 C134.43551322 90.21040979 135.40016617 93.65797351 136.94847107 97.14717102 C140.03464996 98.07884767 141.79582059 98.49356096 144.94847107 98.14717102 C147.84190693 96.53919472 150.28683139 94.61623468 152.88206482 92.56123352 C156.00939587 90.09920729 159.24579777 87.88487557 162.57347107 85.70967102 C170.78065934 80.29189689 178.90364919 74.75111813 187.02903748 69.21186829 C190.00025079 67.18744542 192.97407108 65.16690776 195.94847107 63.14717102 C197.24011169 62.26424377 197.24011169 62.26424377 198.55784607 61.36347961 C199.73733826 60.5641803 199.73733826 60.5641803 200.94065857 59.74873352 C201.61725525 59.28805481 202.29385193 58.8273761 202.99095154 58.35273743 C211.27714363 53.24956749 220.66974993 52.96547946 230.06175232 54.73310852 C242.98025952 58.38581224 251.60944625 68.65309816 260.72581482 77.92060852 C263.69780997 80.92607402 266.80038685 83.71417668 270.02659607 86.44404602 C273.34621061 89.38581826 276.4025781 92.59464106 279.51878357 95.74873352 C281.56336524 97.76701832 283.63683125 99.6621662 285.82347107 101.52217102 C289.97102731 105.06399897 293.76422163 108.92245218 297.58323669 112.81025696 C300.21739246 115.47629105 302.86657809 117.97090841 305.82347107 120.27217102 C312.92310553 126.17406764 316.3104201 134.71681362 317.19847107 143.66670227 C317.73977407 155.4907896 313.03631693 164.96590831 306.26097107 174.33467102 C304.92434627 176.23783434 303.58843829 178.14150124 302.25315857 180.04560852 C301.20466736 181.52625793 301.20466736 181.52625793 300.13499451 183.03681946 C296.31862735 188.46564009 292.60845025 193.96625223 288.88597107 199.45967102 C287.49926762 201.49744185 286.11254956 203.53520273 284.72581482 205.57295227 C284.09014587 206.51864075 283.45447693 207.46432922 282.79954529 208.43867493 C281.59377092 210.20296677 280.35690112 211.94652701 279.0856781 213.66426086 C275.80512963 218.04708225 275.80512963 218.04708225 274.88206482 223.29170227 C276.10586808 226.56862603 277.46807929 229.69417499 279.01097107 232.83467102 C281.94847107 238.82717102 281.94847107 238.82717102 281.94847107 242.14717102 C282.66897644 242.19701645 283.38948181 242.24686188 284.13182068 242.29821777 C291.66657604 242.86638123 299.05871559 243.83857705 306.51097107 245.07295227 C307.66411804 245.26181503 308.81726501 245.4506778 310.00535583 245.64526367 C312.42594154 246.0436671 314.84610473 246.44464553 317.26585388 246.84809875 C320.93704702 247.45777383 324.61055503 248.05181346 328.28440857 248.6452179 C330.6517542 249.03684135 333.01894718 249.42938886 335.38597107 249.82295227 C336.46757507 249.99603409 337.54917908 250.16911591 338.66355896 250.34744263 C352.3145015 252.66292581 362.90696012 256.01805918 371.60862732 267.29951477 C376.15289442 274.20203126 377.24739507 280.52049297 377.23899841 288.64985657 C377.24571564 289.58891342 377.25243286 290.52797028 377.25935364 291.4954834 C377.27830835 294.59167312 377.28225694 297.68764567 377.28440857 300.78388977 C377.29083951 302.94614754 377.29756809 305.10840444 377.30458069 307.2706604 C377.31654806 311.80235306 377.32026219 316.33396953 377.31907654 320.86567688 C377.31887367 326.65124074 377.3461449 332.4363116 377.38062096 338.22175884 C377.40294474 342.68896697 377.40691235 347.15605763 377.40585709 351.62331581 C377.40820598 353.75500495 377.41698907 355.88669768 377.43252182 358.01833153 C377.53247413 373.15560265 377.14393899 385.72868581 365.94847107 397.14717102 C355.04790352 406.87516756 338.07523835 408.31201346 324.19847107 411.14717102 C320.97408549 411.81177868 317.75032621 412.47939252 314.52659607 413.14717102 C313.74030823 413.30927063 312.95402039 413.47137024 312.14390564 413.63838196 C305.59426707 414.99498487 299.06558703 416.43873701 292.54496765 417.92842102 C287.15933966 419.14717102 287.15933966 419.14717102 284.94847107 419.14717102 C284.85952576 419.79556946 284.77058044 420.4439679 284.67893982 421.11201477 C283.50582156 425.98641523 281.29752635 430.44932422 279.21214294 434.9967804 C278.89438904 435.72832336 278.57663513 436.45986633 278.24925232 437.21357727 C277.95188171 437.87301331 277.65451111 438.53244934 277.34812927 439.21186829 C276.65237682 442.58097621 278.60097076 444.60755141 280.37791443 447.36689758 C280.92584656 448.16579407 281.47377869 448.96469055 282.03831482 449.78779602 C282.6523114 450.68554749 283.26630798 451.58329895 283.89891052 452.508255 C284.5546405 453.46159729 285.21037048 454.41493958 285.88597107 455.39717102 C286.56039246 456.38209534 287.23481384 457.36701965 287.92967224 458.38179016 C291.42018159 463.4765507 294.92211653 468.56342786 298.42723083 473.64814758 C300.17202448 476.1814998 301.91188714 478.71820807 303.65013123 481.25605774 C304.54290639 482.55644067 305.4385795 483.85483726 306.33665466 485.15156555 C307.71538215 487.14465823 309.08288272 489.14506049 310.44847107 491.14717102 C310.85815125 491.73425842 311.26783142 492.32134583 311.68992615 492.92622375 C317.77890441 501.92249451 319.09174014 510.30276435 317.94847107 521.14717102 C315.67570545 530.38096756 310.58059279 536.56914491 303.94847107 543.14717102 C303.18921326 543.93092102 302.42995544 544.71467102 301.64768982 545.52217102 C298.28211336 548.9633131 294.84983061 552.24536161 291.20237732 555.38545227 C286.73675879 559.26785302 282.59291025 563.42724115 278.44847107 567.64717102 C273.74327151 572.43807549 268.98300477 577.03651247 263.89085388 581.41426086 C261.26928884 583.75310811 258.85256172 586.26127956 256.41893005 588.79292297 C247.33795979 598.22468611 238.33132591 606.23273921 224.60862732 606.61592102 C223.85452576 606.62623352 223.10042419 606.63654602 222.32347107 606.64717102 C221.22712341 606.70904602 221.22712341 606.70904602 220.10862732 606.77217102 C205.11080062 606.97939488 190.80067001 593.54110292 179.07347107 585.52217102 C177.10778535 584.18555661 175.14164286 582.84961368 173.17503357 581.51435852 C169.57598461 579.06978851 165.97978986 576.62113386 162.38645935 574.16816711 C161.23565384 573.38683662 161.23565384 573.38683662 160.06159973 572.58972168 C158.73823228 571.68631025 157.42065331 570.77429377 156.11195374 569.84976196 C153.0630022 567.6256933 153.0630022 567.6256933 149.39378357 567.26826477 C145.95798303 568.50317711 142.61012567 569.87372886 139.25315857 571.30732727 C136.94847107 572.14717102 136.94847107 572.14717102 133.94847107 572.14717102 C133.85348328 572.69382416 133.75849548 573.24047729 133.66062927 573.80369568 C131.2938015 587.3344708 128.63435753 600.77055479 125.59397888 614.16621399 C124.93818303 617.06768898 124.29874334 619.97249869 123.65940857 622.87763977 C123.23591375 624.75676813 122.81147071 626.63568311 122.38597107 628.51435852 C122.10765442 629.79256973 122.10765442 629.79256973 121.82371521 631.09660339 C119.36161944 641.75238097 114.35369115 650.78518197 105.07347107 656.95967102 C97.71297374 661.0687059 90.83656056 662.59660058 82.45652771 662.53535461 C81.55444077 662.54061157 80.65235382 662.54586853 79.72293091 662.55128479 C76.7679821 662.56438996 73.81358074 662.5557797 70.85862732 662.54560852 C68.78794248 662.54763216 66.71725834 662.550546 64.64657593 662.55430603 C60.31688113 662.55871671 55.98737264 662.55233947 51.65769958 662.5382843 C46.12888513 662.52120406 40.60050802 662.53103443 35.07170963 662.54900169 C30.79840853 662.55988265 26.52520976 662.55637326 22.25190544 662.54861832 C20.21430343 662.54662766 18.17669191 662.54903538 16.13910103 662.55605698 C13.28242284 662.56374148 10.42643613 662.55196948 7.56980896 662.53535461 C6.7409317 662.54142731 5.91205444 662.5475 5.05805969 662.55375671 C-5.89429689 662.43672426 -15.04097906 658.77760707 -23.02809143 651.29560852 C-30.31498934 643.51258139 -32.63418079 634.8969745 -34.12184143 624.53388977 C-34.28900665 623.44308609 -34.45617187 622.35228241 -34.62840271 621.22842407 C-35.15645221 617.76553019 -35.66691016 614.3003202 -36.17652893 610.83467102 C-36.52559569 608.52003757 -36.87584576 606.20558224 -37.22731018 603.89131165 C-37.72498937 600.61201303 -38.22107448 597.33257742 -38.70780945 594.05163574 C-39.00094598 592.0766517 -39.29827162 590.10228408 -39.60014343 588.12861633 C-39.91855211 586.02549589 -40.22188895 583.92006666 -40.51438904 581.81318665 C-40.75320297 580.19416443 -40.75320297 580.19416443 -40.99684143 578.54243469 C-41.13509338 577.56417221 -41.27334534 576.58590973 -41.41578674 575.57800293 C-41.88577527 572.84913842 -41.88577527 572.84913842 -44.73121643 570.81123352 C-45.78566956 570.4683429 -46.84012268 570.12545227 -47.92652893 569.77217102 C-48.97582581 569.39318665 -50.02512268 569.01420227 -51.10621643 568.62373352 C-55.41237777 567.92698063 -56.88988542 569.33023476 -60.32887268 571.74873352 C-61.20672424 572.4164679 -62.08457581 573.08420227 -62.98902893 573.77217102 C-63.49136047 574.15260559 -63.99369202 574.53304016 -64.51124573 574.92500305 C-66.36122448 576.3282118 -68.20665006 577.73726359 -70.05152893 579.14717102 C-71.69472704 580.40242001 -73.33795851 581.65762534 -74.98121643 582.91279602 C-75.8581012 583.58262512 -76.73498596 584.25245422 -77.63844299 584.94258118 C-81.26080561 587.70640102 -84.88838929 590.46331026 -88.51734924 593.21846008 C-90.11606785 594.43521124 -91.71214544 595.6554477 -93.30445862 596.88056946 C-107.29762106 607.64605449 -107.29762106 607.64605449 -116.05152893 610.14717102 C-116.71281799 610.33666321 -117.37410706 610.5261554 -118.05543518 610.72138977 C-127.3832094 612.71107155 -137.14737174 610.25989723 -145.05152893 605.14717102 C-147.99541207 602.78781341 -150.74014232 600.24610247 -153.47193909 597.64570618 C-155.30331106 595.90830878 -157.15141979 594.18965946 -159.00074768 592.47138977 C-164.90183644 586.97654524 -170.78384343 581.48410816 -176.43482971 575.73042297 C-178.14161714 574.05894661 -179.91795872 572.50520277 -181.73902893 570.95967102 C-185.9153774 567.3672004 -189.7494865 563.47792618 -193.6174469 559.5617218 C-196.44865154 556.70896661 -199.31474501 553.95764729 -202.36402893 551.33467102 C-209.08532565 545.54766243 -214.22350172 540.26201523 -218.05152893 532.14717102 C-218.60260315 531.02762024 -218.60260315 531.02762024 -219.16481018 529.88545227 C-220.34498095 526.24096017 -220.41977725 522.75074062 -220.42652893 518.95967102 C-220.45102112 518.25519836 -220.47551331 517.55072571 -220.50074768 516.8249054 C-220.55841284 506.2049044 -214.85062805 497.71280803 -209.39515686 488.96714783 C-208.27579687 487.1683192 -207.17033133 485.3615879 -206.06813049 483.55220032 C-202.57875774 477.83126823 -199.05558524 472.13536953 -195.44953918 466.4871521 C-193.91316687 464.06961806 -192.40115709 461.6374093 -190.89320374 459.20207214 C-189.82262362 457.49333985 -188.71907221 455.80540739 -187.61500549 454.11811829 C-184.12258006 448.77504501 -184.12258006 448.77504501 -183.19532776 442.6620636 C-183.94529254 440.32748377 -184.89745149 438.30781799 -186.05152893 436.14717102 C-186.60053171 434.78940671 -187.13618597 433.42615273 -187.65699768 432.05732727 C-188.45382035 430.10757106 -189.25901454 428.16143151 -190.06520081 426.2155304 C-192.05152893 421.35176454 -192.05152893 421.35176454 -192.05152893 419.14717102 C-192.77565979 419.03687561 -193.49979065 418.9265802 -194.24586487 418.8129425 C-201.70409042 417.63000037 -208.979045 416.04272805 -216.30152893 414.20967102 C-223.37974681 412.4703173 -230.43464547 410.78707957 -237.61402893 409.52217102 C-268.29348438 403.99086459 -268.29348438 403.99086459 -277.00074768 392.59638977 C-277.57438049 391.68502258 -278.14801331 390.7736554 -278.73902893 389.83467102 C-279.32039612 388.93103821 -279.90176331 388.0274054 -280.50074768 387.09638977 C-283.91971886 380.59431611 -284.34951971 374.72427063 -284.34205627 367.51509094 C-284.3487735 366.57428177 -284.35549072 365.6334726 -284.3624115 364.66415405 C-284.38133552 361.56859486 -284.38531288 358.47325313 -284.38746643 355.37763977 C-284.39389824 353.21441562 -284.40062688 351.05119232 -284.40763855 348.88796997 C-284.41959733 344.3580575 -284.42332081 339.82822121 -284.4221344 335.29829407 C-284.42193129 329.51153994 -284.44923139 323.72527737 -284.48367882 317.93863964 C-284.50598427 313.47147403 -284.50997082 309.00442605 -284.50891495 304.53721046 C-284.51126548 302.40469481 -284.52005795 300.27217565 -284.53557968 298.13971519 C-284.55531322 295.14861098 -284.54937256 292.1585581 -284.53736877 289.16743469 C-284.55422729 287.86330124 -284.55422729 287.86330124 -284.57142639 286.53282166 C-284.46796967 276.31886167 -280.54916476 268.64635244 -273.50074768 261.40498352 C-267.00748116 255.41916526 -260.91035553 252.85146545 -252.34059143 251.19013977 C-251.4767836 251.01924332 -250.61297577 250.84834686 -249.72299194 250.67227173 C-242.57738902 249.31643332 -235.40782761 248.39376564 -228.18824768 247.53388977 C-224.83756062 247.11027835 -221.48753074 246.68182933 -218.13771057 246.25141907 C-215.85126405 245.97105385 -213.56194419 245.71329218 -211.27052307 245.477005 C-198.98060666 244.75631614 -198.98060666 244.75631614 -188.32698059 239.54811096 C-185.36742035 235.41884747 -184.09124134 231.07221233 -183.05152893 226.14717102 C-182.81337463 225.23499817 -182.57522034 224.32282532 -182.32984924 223.38301086 C-181.8656729 219.65412755 -184.06551316 216.99556823 -185.98902893 213.95967102 C-186.42851868 213.23989075 -186.86800842 212.52011047 -187.32081604 211.77851868 C-188.31911559 210.14844174 -189.32457379 208.52273546 -190.33570862 206.90058899 C-192.22592729 203.8673098 -194.09675749 200.82257611 -195.96559143 197.77607727 C-198.72606505 193.28020575 -201.49002655 188.78652153 -204.25856018 184.29560852 C-204.91034241 183.238255 -205.56212463 182.18090149 -206.23365784 181.09150696 C-207.3483294 179.28611627 -208.46477483 177.48181748 -209.58424377 175.67939758 C-212.15250863 171.54312969 -214.65531796 167.38577762 -217.05152893 163.14717102 C-217.52203674 162.32603821 -217.99254456 161.5049054 -218.47731018 160.65888977 C-222.59259982 152.24446594 -222.64040044 141.07488395 -220.23902893 132.11592102 C-217.21834066 125.48718844 -212.09355123 120.30239934 -207.05152893 115.14717102 C-206.43922424 114.50779602 -205.82691956 113.86842102 -205.19606018 113.20967102 C-202.36106244 110.30331179 -199.42208187 107.57840038 -196.33668518 104.94013977 C-192.04069724 101.19799515 -188.03929735 97.21282554 -184.05152893 93.14717102 C-180.15661222 89.17618172 -176.26322591 85.27535271 -172.04371643 81.64717102 C-168.57018692 78.65678251 -165.35899814 75.48360097 -162.16700745 72.19673157 C-152.2119949 61.9462311 -142.71338094 52.30539272 -127.67652893 51.77217102 C-111.80556499 52.32478119 -101.22056329 61.09629033 -89.24220276 70.5280304 C-82.84734569 75.5617012 -76.34849246 80.43581905 -69.75904846 85.21186829 C-66.25821545 87.75359389 -62.8088354 90.30193641 -59.50465393 93.09638977 C-54.52281602 97.56993642 -54.52281602 97.56993642 -48.32496643 99.24482727 C-46.04619904 98.76155926 -44.17547074 98.07205498 -42.05152893 97.14717102 C-42.11267883 95.35340027 -42.11267883 95.35340027 -42.17506409 93.52339172 C-42.1682007 86.96749881 -41.09067627 80.5906827 -40.07496643 74.12763977 C-39.86511193 72.77919917 -39.65528375 71.43075446 -39.44548035 70.08230591 C-39.00521266 67.26671218 -38.55863933 64.45219429 -38.10865784 61.63813782 C-37.53905952 58.06740501 -36.99446163 54.49334265 -36.45583153 50.91782665 C-36.03179355 48.13316551 -35.5895563 45.35160326 -35.14261246 42.57053566 C-34.83448413 40.62522793 -34.54492435 38.67700729 -34.25596619 36.72875977 C-32.26948859 24.68255333 -28.02484852 13.73251268 -18.05152893 6.14717102 C-12.29696863 2.68056843 -6.79248376 0.04207118 0 0 Z M6.94847107 41.14717102 C5.71097107 48.55154602 4.47347107 55.95592102 3.19847107 63.58467102 C2.79547791 65.98192444 2.39248474 68.37917786 1.97727966 70.84907532 C0.30012436 80.84045476 -1.3236739 90.82742001 -2.73951721 100.85932922 C-4.31068421 111.78113421 -5.89116138 122.60184509 -15.08424377 129.9108429 C-19.35622228 132.59554123 -24.1916339 134.0996746 -28.92652893 135.77217102 C-29.97711487 136.15373352 -31.02770081 136.53529602 -32.11012268 136.92842102 C-34.15754056 137.6715389 -36.20720852 138.4084925 -38.2592926 139.1386261 C-40.68157734 140.01354594 -43.07461898 140.93908663 -45.46949768 141.88545227 C-48.67280418 143.0137707 -51.11957946 143.63274295 -54.48902893 143.70967102 C-55.75553284 143.77347961 -55.75553284 143.77347961 -57.04762268 143.83857727 C-64.75160942 142.06535796 -71.33993553 135.47830521 -77.42652893 130.64717102 C-86.01349619 123.90200172 -94.76216829 117.40190945 -103.57691956 110.95869446 C-107.97246503 107.74096089 -112.35484489 104.50535726 -116.73902893 101.27217102 C-118.3470471 100.08720089 -119.95511473 98.90229787 -121.56324768 97.71748352 C-122.7260081 96.86071269 -123.88876851 96.00394185 -125.05152893 95.14717102 C-128.08130322 96.49948289 -130.13625506 98.00197645 -132.44215393 100.37763977 C-133.38381409 101.33573547 -133.38381409 101.33573547 -134.34449768 102.31318665 C-134.99031799 102.98027649 -135.63613831 103.64736633 -136.30152893 104.33467102 C-140.1036726 108.24178184 -143.90218936 112.07653819 -148.03590393 115.63545227 C-152.25632886 119.26902249 -156.15364865 123.17316027 -160.05152893 127.14717102 C-164.64594965 131.83132652 -169.29835288 136.34172048 -174.28981018 140.60420227 C-175.94968704 142.05797468 -177.51086874 143.56858688 -179.05152893 145.14717102 C-177.62068835 149.0371022 -175.79250462 152.41973335 -173.62965393 155.95185852 C-173.29302231 156.5040657 -172.95639069 157.05627289 -172.60955811 157.62521362 C-171.51042736 159.42639361 -170.4060143 161.2242705 -169.30152893 163.02217102 C-168.53431441 164.27723535 -167.76747283 165.53252773 -167.00099182 166.78804016 C-165.44103076 169.34229176 -163.87914093 171.89534768 -162.31568909 174.44746399 C-160.2353344 177.84465242 -158.16338023 181.2468874 -156.09449768 184.65107727 C-155.48783264 185.64848938 -154.8811676 186.64590149 -154.25611877 187.67353821 C-153.08791644 189.59805391 -151.92282032 191.52445892 -150.76100159 193.45283508 C-148.39498532 197.36856763 -146.02435111 201.24905531 -143.40699768 205.00263977 C-139.33162594 210.97652094 -136.59969446 215.88758086 -137.07106018 223.26045227 C-138.56184289 230.67455853 -142.68200723 237.50869497 -146.09059143 244.17842102 C-149.30708438 250.50838024 -151.89700721 257.00972077 -154.32496643 263.67671204 C-156.2306216 268.72531577 -158.10246093 272.40389952 -162.05152893 276.14717102 C-167.53966423 278.50486451 -172.79965327 279.84656489 -178.67652893 280.79560852 C-179.49935364 280.93487762 -180.32217834 281.07414673 -181.16993713 281.21763611 C-183.79594491 281.65996471 -186.4236551 282.09108489 -189.05152893 282.52217102 C-190.71961424 282.80272888 -192.38758386 283.0839755 -194.05543518 283.36592102 C-210.3671508 286.09478377 -226.71010559 288.59382362 -243.05152893 291.14717102 C-243.05152893 315.89717102 -243.05152893 340.64717102 -243.05152893 366.14717102 C-219.58896714 371.36154206 -219.58896714 371.36154206 -196.12574768 376.57295227 C-191.78785706 377.54756165 -191.78785706 377.54756165 -189.76661682 378.00386047 C-188.36355068 378.31927582 -186.95985964 378.63191945 -185.55567932 378.94233704 C-183.41087817 379.41698084 -181.26818711 379.90027459 -179.12574768 380.38545227 C-177.92522766 380.6539801 -176.72470764 380.92250793 -175.48780823 381.19917297 C-169.23990118 382.92284069 -164.17190784 384.91317619 -160.05152893 390.14717102 C-159.36597826 391.64717932 -158.73246194 393.17149517 -158.13746643 394.70967102 C-157.79143372 395.59984924 -157.445401 396.49002747 -157.08888245 397.40718079 C-155.81371137 400.77532506 -154.55935127 404.1507383 -153.31129456 407.52900696 C-149.97953471 416.51788892 -146.3483019 425.19277645 -141.84571838 433.66645813 C-138.4409859 440.38504009 -138.1009866 445.64975573 -140.07496643 452.91279602 C-142.61383907 458.91269295 -146.25078252 464.37628518 -149.67652893 469.89717102 C-150.42737513 471.11943915 -151.17744297 472.34218573 -151.92677307 473.56538391 C-153.49295301 476.12020678 -155.0624851 478.67291811 -156.63502502 481.22383118 C-160.22766877 487.05344181 -163.80126364 492.89461199 -167.36445618 498.74226379 C-168.47041129 500.55416942 -169.5813207 502.36296746 -170.69264221 504.17158508 C-171.36666077 505.27598938 -172.04067932 506.38039368 -172.73512268 507.51826477 C-173.3286554 508.48691467 -173.92218811 509.45556458 -174.53370667 510.4535675 C-175.9513807 512.96944295 -177.05306718 515.44145346 -178.05152893 518.14717102 C-174.58582466 521.71034823 -171.08413922 525.16944777 -167.30152893 528.39717102 C-163.89314413 531.32996724 -160.70753729 534.44790003 -157.55152893 537.64717102 C-154.47763374 540.76297344 -151.38450679 543.80594399 -148.05152893 546.64717102 C-144.71855269 549.48839667 -141.62540056 552.53134243 -138.55152893 555.64717102 C-134.21753852 560.02951837 -129.77128271 564.18474163 -125.05152893 568.14717102 C-122.35996806 566.87575831 -120.03131882 565.49329912 -117.68043518 563.67060852 C-117.03445374 563.17286926 -116.38847229 562.67513 -115.72291565 562.16230774 C-115.02698303 561.62106262 -114.33105042 561.0798175 -113.61402893 560.52217102 C-112.08687384 559.34484293 -110.55952092 558.16777142 -109.03199768 556.99092102 C-108.22423889 556.36701477 -107.4164801 555.74310852 -106.58424377 555.10029602 C-95.95411295 546.90277852 -85.28987709 538.74390424 -74.48902893 530.77217102 C-73.88816467 530.32599426 -73.28730042 529.8798175 -72.66822815 529.42012024 C-66.91890136 525.2052816 -63.08378552 523.40641819 -55.91090393 523.50263977 C-48.95556454 524.66420961 -42.78456827 527.8449967 -36.41090393 530.76435852 C-30.91969209 533.26880971 -25.32179274 535.25584679 -19.55665588 537.0304718 C-13.36565045 539.04970163 -9.44585572 541.86626732 -6.03688049 547.44282532 C-3.18374181 553.38357608 -2.48270124 559.784428 -1.50856018 566.24482727 C-1.29361618 567.60686061 -1.07750506 568.96871022 -0.86029053 570.3303833 C-0.29491406 573.8949274 0.25446447 577.46175538 0.80046082 581.02931213 C1.35744328 584.64893821 1.93011522 588.26607728 2.50120544 591.88349915 C4.03574363 601.63062845 5.55301858 611.3790036 6.94847107 621.14717102 C31.69847107 621.14717102 56.44847107 621.14717102 81.94847107 621.14717102 C83.28909607 614.83592102 84.62972107 608.52467102 86.01097107 602.02217102 C87.04624839 597.20413522 88.08570582 592.38708396 89.12886047 587.570755 C90.08291776 583.16311275 91.03400889 578.7550466 91.96507263 574.34248352 C92.83294009 570.23060459 93.7321634 566.1262997 94.63597107 562.02217102 C94.88419617 560.82318176 95.13242126 559.6241925 95.38816833 558.38887024 C97.08497797 550.85003941 99.18028831 544.36373869 105.83836365 539.87226868 C110.28018672 537.52484435 115.06092397 535.96133252 119.82347107 534.39717102 C125.40410666 532.52100324 130.73474506 530.38633597 136.05784607 527.86933899 C150.07685267 521.26264691 150.07685267 521.26264691 156.94847107 523.14717102 C163.65838782 525.60432363 169.36721347 529.35059889 175.11253357 533.54560852 C183.28786048 539.4509769 191.6236853 545.10730218 200.02024841 550.69258118 C201.74471467 551.84387429 203.46467808 553.00193652 205.18040466 554.16621399 C207.68946199 555.86806282 210.21152197 557.54875 212.73753357 559.22529602 C213.88749313 560.01399078 213.88749313 560.01399078 215.0606842 560.81861877 C216.13363235 561.52120819 216.13363235 561.52120819 217.22825623 562.23799133 C217.85221283 562.65639282 218.47616943 563.07479431 219.11903381 563.50587463 C220.98688331 564.37406662 220.98688331 564.37406662 223.01008606 563.42738342 C225.94445525 561.48937018 228.27667391 558.98392883 230.69847107 556.45967102 C233.95625123 553.08554157 237.24990332 549.84368552 240.80784607 546.78388977 C245.24440688 542.95188178 249.34263974 538.82778981 253.44847107 534.64717102 C258.2170906 529.79169139 263.02722802 525.0880156 268.20433044 520.66645813 C270.57407399 518.60222044 272.76136158 516.40262768 274.94847107 514.14717102 C273.36828643 509.47803788 270.8253171 505.8223109 268.01097107 501.83467102 C267.01214308 500.40116789 266.01344887 498.96757154 265.01487732 497.53388977 C264.24941589 496.44020081 264.24941589 496.44020081 263.4684906 495.32441711 C261.10929827 491.9451564 258.779656 488.5457822 256.44847107 485.14717102 C255.53975498 483.8254615 254.6309001 482.50384738 253.72190857 481.18232727 C251.80870318 478.39966875 249.89754147 475.61561892 247.98753357 472.83076477 C247.49962341 472.1198468 247.01171326 471.40892883 246.50901794 470.6764679 C245.58530273 469.33048287 244.66208522 467.98415609 243.73948669 466.6374054 C241.59821862 463.51838934 239.43096515 460.42504268 237.21018982 457.36201477 C233.18542392 451.64114718 231.99807576 446.08524572 232.94847107 439.14717102 C234.47705944 434.71989077 236.48352962 430.55266072 238.51097107 426.33467102 C242.76394892 417.20067524 246.64688313 408.16358053 249.54051208 398.50337219 C251.23318639 393.16672209 253.5141192 388.71255981 257.94847107 385.14717102 C262.71896043 382.81202441 267.28015158 381.45317474 272.48753357 380.31513977 C273.19875366 380.15794968 273.90997375 380.00075958 274.64274597 379.83880615 C276.95154839 379.33057871 279.26240343 378.83248624 281.57347107 378.33467102 C283.17855314 377.98340972 284.78353263 377.63167934 286.38841248 377.27949524 C294.10184123 375.59345874 301.82429038 373.95314195 309.55784607 372.36201477 C310.55689468 372.15644203 310.55689468 372.15644203 311.5761261 371.94671631 C314.69433682 371.30678013 317.8138279 370.67415932 320.93528748 370.05024719 C322.04049744 369.82699768 323.1457074 369.60374817 324.28440857 369.37373352 C325.23879822 369.18375793 326.19318787 368.99378235 327.17649841 368.79804993 C330.15021102 368.09980105 333.05063285 367.11311709 335.94847107 366.14717102 C335.94847107 341.72717102 335.94847107 317.30717102 335.94847107 292.14717102 C323.33528968 289.61579808 323.33528968 289.61579808 310.67503357 287.42842102 C309.7821463 287.28440857 308.88925903 287.14039612 307.96931458 286.99201965 C305.17112037 286.54107163 302.37235085 286.09384223 299.57347107 285.64717102 C293.21769293 284.62895849 286.86277402 283.60578939 280.51045227 282.56620789 C278.81630978 282.28911446 277.12191552 282.01355546 275.42726135 281.73960876 C273.08270907 281.3584542 270.7400576 280.96728101 268.39768982 280.57295227 C267.71046844 280.46273743 267.02324707 280.35252258 266.31520081 280.2389679 C259.66227252 279.09678393 255.20386373 277.01851281 251.04612732 271.72529602 C247.97392572 266.94086383 246.21024755 261.49752177 244.19847107 256.20967102 C240.77819924 247.41103929 237.09361635 239.05549608 232.44456482 230.84248352 C230.47063235 227.28631276 229.75577992 224.47642028 229.63597107 220.45967102 C229.59858826 219.65142883 229.56120544 218.84318665 229.52268982 218.01045227 C230.65709634 210.38182864 235.92795719 204.06502637 240.32347107 197.95967102 C247.15139528 188.34234476 253.72321184 178.57386216 260.23167419 168.73847961 C263.08572169 164.43062123 265.9552663 160.13311035 268.82347107 155.83467102 C269.82093845 154.33862497 270.8183418 152.84253623 271.81565857 151.34638977 C272.51948669 150.29064758 273.22331482 149.2349054 273.94847107 148.14717102 C270.1616927 143.62644311 266.26244241 139.29764837 262.07347107 135.14717102 C261.55027283 134.62590637 261.02707458 134.10464172 260.48802185 133.56758118 C257.08795502 130.20518822 253.58354923 127.01933294 249.94065857 123.92060852 C246.60800256 120.95389121 243.52845456 117.73424911 240.39378357 114.56123352 C237.66349239 111.86583425 234.81974368 109.36346789 231.88987732 106.88935852 C229.01700895 104.31129153 226.46421053 101.44072123 223.90550232 98.55342102 C222.0204635 96.89944562 222.0204635 96.89944562 219.51487732 97.21357727 C216.56376305 98.28711808 214.55734945 99.66179321 212.07347107 101.58467102 C207.96253626 104.67193431 203.80383117 107.63269514 199.51097107 110.45967102 C192.44246702 115.13466835 185.41365725 119.86758378 178.39717102 124.62016296 C177.15284929 125.46260222 175.90800741 126.30427378 174.66261292 127.14512634 C168.50839781 131.300869 162.37261418 135.44634969 156.52073669 140.02558899 C152.15171451 143.1422486 147.16893923 143.81964998 141.94847107 143.14717102 C137.96076274 141.98311505 134.12360002 140.48277551 130.26097107 138.95967102 C128.66055969 138.34382141 128.66055969 138.34382141 127.02781677 137.7155304 C120.65213215 135.24959693 114.30189543 132.7253268 108.02268982 130.02217102 C106.36128127 129.32131317 104.6591236 128.71738853 102.94847107 128.14717102 C101.94847107 126.52217102 101.94847107 126.52217102 100.94847107 124.14717102 C100.47925232 123.17908508 100.01003357 122.21099915 99.52659607 121.21357727 C97.39988129 116.23407803 96.63323026 111.01648218 95.69847107 105.70967102 C93.78425562 95.3090256 91.66664356 84.97214182 89.38597107 74.64717102 C89.10527771 73.37430237 88.82458435 72.10143372 88.53538513 70.78999329 C87.67628805 66.90834123 86.81232871 63.0277664 85.94847107 59.14717102 C83.96847107 50.23717102 83.96847107 50.23717102 81.94847107 41.14717102 C57.19847107 41.14717102 32.44847107 41.14717102 6.94847107 41.14717102 Z " fill="#231F20" transform="translate(373.05152893066406,87.85282897949219)"/>
<path d="M0 0 C24.88914808 21.14122081 40.76717772 49.25049716 44.0390625 81.91357422 C45.11725512 95.4533774 44.75981325 108.40070031 41.25 121.5625 C41.08371094 122.23055664 40.91742187 122.89861328 40.74609375 123.58691406 C35.45054163 144.75931595 24.69799338 162.36780891 10.25 178.5625 C9.65445313 179.23152344 9.05890625 179.90054688 8.4453125 180.58984375 C-10.11486309 200.21191994 -38.69785456 213.31088672 -65.55859375 214.76928711 C-68.9012146 214.84915981 -72.23553044 214.88895797 -75.57861328 214.87817383 C-77.61675598 214.87501279 -79.6534411 214.89859244 -81.69140625 214.92382812 C-111.68426378 215.06657823 -139.32562627 202.11312277 -160.75 181.5625 C-161.57113281 180.80453125 -162.39226562 180.0465625 -163.23828125 179.265625 C-184.68923089 158.848858 -196.90697468 129.35963449 -198.06640625 99.9375 C-198.90106593 65.33920593 -188.26670111 35.49366087 -164.52734375 10.08984375 C-120.62751381 -35.89575264 -49.36408028 -39.29686278 0 0 Z " fill="#232021" transform="translate(498.75,328.4375)"/>
<path d="M0 0 C2.45897842 1.9050533 4.77214143 3.8890082 7.06640625 5.98828125 C7.74832031 6.57867187 8.43023437 7.1690625 9.1328125 7.77734375 C23.04581385 20.57403775 32.28176057 40.6484709 33.41796875 59.453125 C34.20756484 84.00214434 26.17863379 104.62364094 9.42578125 122.61328125 C-3.54158038 135.66651944 -22.30195051 145.16822653 -40.93359375 145.98828125 C-42.526875 146.08302734 -42.526875 146.08302734 -44.15234375 146.1796875 C-64.51065876 146.84261583 -84.9459749 140.02031366 -99.93359375 125.98828125 C-101.30257813 124.75464844 -101.30257813 124.75464844 -102.69921875 123.49609375 C-118.61319372 108.49521571 -126.67731751 88.96624642 -127.3894043 67.30737305 C-127.71202651 44.44397464 -120.08438036 24.98918742 -104.30517578 8.37060547 C-76.01306939 -20.14308381 -32.40963412 -22.22498212 0 0 Z " fill="#FEFEFE" transform="translate(468.93359375,357.01171875)"/>
<path d="M0 0 C7.15801225 5.82628904 13.52591766 12.4382985 20 19 C22.05270463 17.15811388 22.05270463 17.15811388 23 15 C23.625 16.875 23.625 16.875 24 19 C21.82467143 21.17532857 20.89725531 21.3662254 18 22 C17.34 22.33 16.68 22.66 16 23 C14.32345271 22.72057545 12.65391846 22.39171753 11 22 C11.33 22.99 11.66 23.98 12 25 C12.125 28.625 12.125 28.625 12 32 C11 33 11 33 8.5 33.125 C6 33 6 33 5 32 C4.6068352 30.32115762 4.25914548 28.63149955 3.9375 26.9375 C3.76089844 26.01839844 3.58429688 25.09929687 3.40234375 24.15234375 C3.26957031 23.44207031 3.13679688 22.73179687 3 22 C1.9275 22.185625 0.855 22.37125 -0.25 22.5625 C-3.51946406 22.94393747 -4.99327978 22.89802485 -8 22 C-8.53181175 19.75256955 -9.05007126 17.50192898 -9.5625 15.25 C-9.99755859 13.37054688 -9.99755859 13.37054688 -10.44140625 11.453125 C-10.93444283 8.40526252 -11.07666879 6.82358172 -10 4 C-9.46375 4.268125 -8.9275 4.53625 -8.375 4.8125 C-5.42717399 5.04522311 -4.95188505 4.4200144 -2.75 2.5625 C-1.38875 1.2940625 -1.38875 1.2940625 0 0 Z " fill="#201C1D" transform="translate(471,149)"/>
<path d="M0 0 C5.06623768 4.23816537 9.80038069 8.67408963 14.4375 13.375 C15.07365234 14.01566406 15.70980469 14.65632813 16.36523438 15.31640625 C17.91250332 16.87530879 19.45736492 18.43651416 21 20 C23.05270463 18.15811388 23.05270463 18.15811388 24 16 C24.625 17.875 24.625 17.875 25 20 C22.82467143 22.17532857 21.89725531 22.3662254 19 23 C18.34 23.33 17.68 23.66 17 24 C15.32345271 23.72057545 13.65391846 23.39171753 12 23 C12.33 23.99 12.66 24.98 13 26 C13.2295082 32.54098361 13.2295082 32.54098361 12 35 C8.535 34.505 8.535 34.505 5 34 C5.03255208 32.01432292 5.06510417 30.02864583 5.09765625 28.04296875 C5.08263217 25.79694539 5.08263217 25.79694539 4 23 C1.69 23.33 -0.62 23.66 -3 24 C-3.66 22.68 -4.32 21.36 -5 20 C-5.99 20 -6.98 20 -8 20 C-8.99 16.04 -9.98 12.08 -11 8 C-9.68 8 -8.36 8 -7 8 C-4.406659 6.93215371 -3.002501 6.002501 -1 4 C-0.3574765 1.93125966 -0.3574765 1.93125966 0 0 Z " fill="#201C1D" transform="translate(150,468)"/>
<path d="M0 0 C5 5 5 5 6.4375 6.8125 C8.84793852 8.64443328 11.07810726 8.19479285 14 8 C13.525625 8.4125 13.05125 8.825 12.5625 9.25 C10.81264784 11.20983441 10.56788417 12.48508441 10 15 C9.34 15.66 8.68 16.32 8 17 C6.0625 16.625 6.0625 16.625 4 16 C3.01 16 2.02 16 1 16 C0.360625 15.67 -0.27875 15.34 -0.9375 15 C-3.21785272 13.709151 -3.21785272 13.709151 -7 14 C-6.29875 14.804375 -5.5975 15.60875 -4.875 16.4375 C-3.3454122 18.6677032 -2.97519518 19.66837029 -3.1796875 22.40234375 C-3.69616885 24.64160878 -4.28217885 26.81743569 -5 29 C-5.33 28.34 -5.66 27.68 -6 27 C-7.32 27.33 -8.64 27.66 -10 28 C-11.15454162 26.75803878 -12.29832562 25.50607155 -13.4375 24.25 C-14.07558594 23.55390625 -14.71367187 22.8578125 -15.37109375 22.140625 C-17 20 -17 20 -17.46875 17.84375 C-17.81975945 15.81754639 -17.81975945 15.81754639 -19.84765625 14.953125 C-20.57855469 14.72109375 -21.30945313 14.4890625 -22.0625 14.25 C-22.79597656 14.00765625 -23.52945312 13.7653125 -24.28515625 13.515625 C-24.85105469 13.34546875 -25.41695313 13.1753125 -26 13 C-24.35026022 9.20559851 -23.3433307 8.14292842 -19.453125 6.5234375 C-18.05740928 6.12164055 -16.65596399 5.73931914 -15.25 5.375 C-13.85833285 4.9907337 -12.46769138 4.60273253 -11.078125 4.2109375 C-10.06395508 3.92621582 -10.06395508 3.92621582 -9.02929688 3.63574219 C-5.90544361 2.65709518 -2.98042772 1.34977486 0 0 Z " fill="#221E1F" transform="translate(459,493)"/>
<path d="M0 0 C7.15801225 5.82628904 13.52591766 12.4382985 20 19 C18.2578125 22.875 18.2578125 22.875 15.9375 24 C13.78719721 24.8295822 13.78719721 24.8295822 13.25 27.125 C13.12625 28.053125 13.12625 28.053125 13 29 C10 29 10 29 7.9152832 27.25585938 C7.13499756 26.45986328 6.35471191 25.66386719 5.55078125 24.84375 C4.70322266 23.98652344 3.85566406 23.12929688 2.98242188 22.24609375 C1.66081055 20.88677734 1.66081055 20.88677734 0.3125 19.5 C-0.58017578 18.59378906 -1.47285156 17.68757812 -2.39257812 16.75390625 C-4.60189251 14.50914832 -6.80392533 12.25770002 -9 10 C-8.06409496 8.8944811 -7.12620142 7.79064547 -6.1875 6.6875 C-5.66542969 6.07261719 -5.14335938 5.45773437 -4.60546875 4.82421875 C-3.12827531 3.14575321 -1.59960869 1.56117966 0 0 Z " fill="#F2F2F2" transform="translate(800,779)"/>
<path d="M0 0 C7.15801225 5.82628904 13.52591766 12.4382985 20 19 C18.2578125 22.875 18.2578125 22.875 15.9375 24 C13.78719721 24.8295822 13.78719721 24.8295822 13.25 27.125 C13.12625 28.053125 13.12625 28.053125 13 29 C10 29 10 29 7.9152832 27.25585938 C7.13499756 26.45986328 6.35471191 25.66386719 5.55078125 24.84375 C4.70322266 23.98652344 3.85566406 23.12929688 2.98242188 22.24609375 C1.66081055 20.88677734 1.66081055 20.88677734 0.3125 19.5 C-0.58017578 18.59378906 -1.47285156 17.68757812 -2.39257812 16.75390625 C-4.60189251 14.50914832 -6.80392533 12.25770002 -9 10 C-8.06409496 8.8944811 -7.12620142 7.79064547 -6.1875 6.6875 C-5.66542969 6.07261719 -5.14335937 5.45773437 -4.60546875 4.82421875 C-3.12827531 3.14575321 -1.59960869 1.56117966 0 0 Z " fill="#F2F2F2" transform="translate(480,779)"/>
<path d="M0 0 C7.15801225 5.82628904 13.52591766 12.4382985 20 19 C18.2578125 22.875 18.2578125 22.875 15.9375 24 C13.78719721 24.8295822 13.78719721 24.8295822 13.25 27.125 C13.12625 28.053125 13.12625 28.053125 13 29 C10 29 10 29 7.9152832 27.25585938 C7.13499756 26.45986328 6.35471191 25.66386719 5.55078125 24.84375 C4.70322266 23.98652344 3.85566406 23.12929688 2.98242188 22.24609375 C1.66081055 20.88677734 1.66081055 20.88677734 0.3125 19.5 C-0.58017578 18.59378906 -1.47285156 17.68757812 -2.39257812 16.75390625 C-4.60189251 14.50914832 -6.80392533 12.25770002 -9 10 C-8.06409496 8.8944811 -7.12620142 7.79064547 -6.1875 6.6875 C-5.66542969 6.07261719 -5.14335937 5.45773437 -4.60546875 4.82421875 C-3.12827531 3.14575321 -1.59960869 1.56117966 0 0 Z " fill="#F2F2F2" transform="translate(160,779)"/>
<path d="M0 0 C7.15801225 5.82628904 13.52591766 12.4382985 20 19 C18.2578125 22.875 18.2578125 22.875 15.9375 24 C13.78719721 24.8295822 13.78719721 24.8295822 13.25 27.125 C13.12625 28.053125 13.12625 28.053125 13 29 C10 29 10 29 7.9152832 27.25585938 C7.13499756 26.45986328 6.35471191 25.66386719 5.55078125 24.84375 C4.70322266 23.98652344 3.85566406 23.12929688 2.98242188 22.24609375 C1.66081055 20.88677734 1.66081055 20.88677734 0.3125 19.5 C-0.58017578 18.59378906 -1.47285156 17.68757813 -2.39257812 16.75390625 C-4.60189251 14.50914832 -6.80392533 12.25770002 -9 10 C-8.06409496 8.8944811 -7.12620142 7.79064547 -6.1875 6.6875 C-5.66542969 6.07261719 -5.14335938 5.45773437 -4.60546875 4.82421875 C-3.12827531 3.14575321 -1.59960869 1.56117966 0 0 Z " fill="#F2F2F2" transform="translate(800,459)"/>
<path d="M0 0 C7.15801225 5.82628904 13.52591766 12.4382985 20 19 C18.2578125 22.875 18.2578125 22.875 15.9375 24 C13.78719721 24.8295822 13.78719721 24.8295822 13.25 27.125 C13.12625 28.053125 13.12625 28.053125 13 29 C10 29 10 29 7.9152832 27.25585938 C7.13499756 26.45986328 6.35471191 25.66386719 5.55078125 24.84375 C4.70322266 23.98652344 3.85566406 23.12929687 2.98242188 22.24609375 C1.66081055 20.88677734 1.66081055 20.88677734 0.3125 19.5 C-0.58017578 18.59378906 -1.47285156 17.68757813 -2.39257812 16.75390625 C-4.60189251 14.50914832 -6.80392533 12.25770002 -9 10 C-8.06409496 8.8944811 -7.12620142 7.79064547 -6.1875 6.6875 C-5.66542969 6.07261719 -5.14335938 5.45773438 -4.60546875 4.82421875 C-3.12827531 3.14575321 -1.59960869 1.56117966 0 0 Z " fill="#F2F2F2" transform="translate(800,139)"/>
<path d="M0 0 C7.15801225 5.82628904 13.52591766 12.4382985 20 19 C18.2578125 22.875 18.2578125 22.875 15.9375 24 C13.78719721 24.8295822 13.78719721 24.8295822 13.25 27.125 C13.12625 28.053125 13.12625 28.053125 13 29 C10 29 10 29 7.9152832 27.25585938 C7.13499756 26.45986328 6.35471191 25.66386719 5.55078125 24.84375 C4.70322266 23.98652344 3.85566406 23.12929687 2.98242188 22.24609375 C1.66081055 20.88677734 1.66081055 20.88677734 0.3125 19.5 C-0.58017578 18.59378906 -1.47285156 17.68757813 -2.39257812 16.75390625 C-4.60189251 14.50914832 -6.80392533 12.25770002 -9 10 C-8.06409496 8.8944811 -7.12620142 7.79064547 -6.1875 6.6875 C-5.66542969 6.07261719 -5.14335937 5.45773438 -4.60546875 4.82421875 C-3.12827531 3.14575321 -1.59960869 1.56117966 0 0 Z " fill="#F2F2F2" transform="translate(160,139)"/>
<path d="M0 0 C4.52615993 3.67832017 8.39424999 7.41086363 12 12 C7.45804187 11.12654651 5.51166892 10.71065128 2.75 6.875 C2.1725 5.92625 1.595 4.9775 1 4 C0.01 4 -0.98 4 -2 4 C-1.505 4.61875 -1.01 5.2375 -0.5 5.875 C1 8 1 8 1 10 C-0.32 10 -1.64 10 -3 10 C-3 10.99 -3 11.98 -3 13 C-2.071875 12.896875 -1.14375 12.79375 -0.1875 12.6875 C3 13 3 13 4.875 15.125 C6.11643983 18.29756845 6.23560076 20.62305582 6 24 C5.01 23.67 4.02 23.34 3 23 C3.7187807 30.04207705 3.7187807 30.04207705 5 37 C3 36 3 36 2.1875 34.25 C0.31457303 30.70129626 -2.61565562 28.17262113 -5.66015625 25.59375 C-8.591255 22.98832889 -9.87601752 21.71634322 -10.5625 17.75 C-9.84854775 12.9903183 -8.53889173 8.55255471 -7 4 C-6.01 4 -5.02 4 -4 4 C-1.81222534 2.0624994 -1.81222534 2.0624994 0 0 Z " fill="#2F2C2D" transform="translate(506,437)"/>
<path d="M0 0 C0.99 0.33 1.98 0.66 3 1 C3 1.66 3 2.32 3 3 C3.66 3 4.32 3 5 3 C5.8125 5.125 5.8125 5.125 6 8 C3.53900482 11.87793179 2.27524252 13.55756892 -2.0625 15.0625 C-5.44299112 14.99057466 -6.59938089 14.30828761 -9 12 C-8.95359375 12.56847656 -8.9071875 13.13695312 -8.859375 13.72265625 C-8.57650029 19.7741545 -9.59410766 22.99759562 -13 28 C-13.99 28 -14.98 28 -16 28 C-15.77183594 27.34773437 -15.54367188 26.69546875 -15.30859375 26.0234375 C-12.97754433 19.10306622 -12.97754433 19.10306622 -14 12 C-14.97242466 10.64642397 -15.96906732 9.30956313 -17 8 C-15.87895467 6.68412059 -14.75303035 5.37239647 -13.625 4.0625 C-12.99851563 3.33160156 -12.37203125 2.60070312 -11.7265625 1.84765625 C-8.1867638 -1.94040887 -4.72391666 -0.84188614 0 0 Z " fill="#F1F1F1" transform="translate(148,499)"/>
<path d="M0 0 C3.45201639 1.47721422 5.64961936 3.43794001 8.25 6.125 C8.95640625 6.84945313 9.6628125 7.57390625 10.390625 8.3203125 C11.18726563 9.15175781 11.18726563 9.15175781 12 10 C14.05270463 8.15811388 14.05270463 8.15811388 15 6 C15.625 7.875 15.625 7.875 16 10 C13.82467143 12.17532857 12.89725531 12.3662254 10 13 C9.01 13.495 9.01 13.495 8 14 C6.32345271 13.72057545 4.65391846 13.39171753 3 13 C3.33 13.99 3.66 14.98 4 16 C4.125 19.625 4.125 19.625 4 23 C3 24 3 24 0.5 24.125 C-2 24 -2 24 -3 23 C-3.3931648 21.32115762 -3.74085452 19.63149955 -4.0625 17.9375 C-4.23910156 17.01839844 -4.41570312 16.09929687 -4.59765625 15.15234375 C-4.73042969 14.44207031 -4.86320312 13.73179687 -5 13 C-7.31 13.33 -9.62 13.66 -12 14 C-12 12.68 -12 11.36 -12 10 C-9.8828125 7.9296875 -9.8828125 7.9296875 -7.125 5.875 C-3.41959866 3.10179294 -3.41959866 3.10179294 0 0 Z " fill="#332F30" transform="translate(479,478)"/>
<path d="M0 0 C5 5 5 5 6.4375 6.8125 C8.84793852 8.64443328 11.07810726 8.19479285 14 8 C13.525625 8.4125 13.05125 8.825 12.5625 9.25 C10.81264784 11.20983441 10.56788417 12.48508441 10 15 C9.34 15.66 8.68 16.32 8 17 C6.0625 16.625 6.0625 16.625 4 16 C3.01 16 2.02 16 1 16 C0.360625 15.67 -0.27875 15.34 -0.9375 15 C-3.21785272 13.709151 -3.21785272 13.709151 -7 14 C-5.948125 15.2065625 -5.948125 15.2065625 -4.875 16.4375 C-3.3454122 18.6677032 -2.97519518 19.66837029 -3.1796875 22.40234375 C-3.69616885 24.64160878 -4.28217885 26.81743569 -5 29 C-5.33 28.34 -5.66 27.68 -6 27 C-7.32 27.33 -8.64 27.66 -10 28 C-9.34 26.35 -8.68 24.7 -8 23 C-9.65 21.02 -11.3 19.04 -13 17 C-9.7 13.7 -6.4 10.4 -3 7 C0.23475448 8.61737724 1.70572021 9.47629223 4 12 C4.99 11.67 5.98 11.34 7 11 C6.06409496 9.8944811 5.12620142 8.79064547 4.1875 7.6875 C3.66542969 7.07261719 3.14335937 6.45773437 2.60546875 5.82421875 C1.12827531 4.14575321 -0.40039131 2.56117966 -2 1 C-1.34 0.67 -0.68 0.34 0 0 Z " fill="#423E3F" transform="translate(459,493)"/>
<path d="M0 0 C6.875 5.625 6.875 5.625 8 9 C6.56640625 11.26171875 6.56640625 11.26171875 4.5625 13.6875 C3.90378906 14.49574219 3.24507813 15.30398438 2.56640625 16.13671875 C1.79103516 17.05904297 1.79103516 17.05904297 1 18 C-3.50884026 15.68116787 -5.93906776 12.93548431 -9 9 C-6.03 6.03 -3.06 3.06 0 0 Z " fill="#F1F1F1" transform="translate(480,459)"/>
<path d="M0 0 C0.8125 2.125 0.8125 2.125 1 5 C-1.46099518 8.87793179 -2.72475748 10.55756892 -7.0625 12.0625 C-10.44299112 11.99057466 -11.59938089 11.30828761 -14 9 C-13.95359375 9.56847656 -13.9071875 10.13695312 -13.859375 10.72265625 C-13.57650029 16.7741545 -14.59410766 19.99759562 -18 25 C-18.99 25 -19.98 25 -21 25 C-20.77183594 24.34773437 -20.54367187 23.69546875 -20.30859375 23.0234375 C-17.97754433 16.10306622 -17.97754433 16.10306622 -19 9 C-20.44730093 6.67780342 -20.44730093 6.67780342 -22 5 C-20.68 4.34 -19.36 3.68 -18 3 C-17.5875 3.515625 -17.175 4.03125 -16.75 4.5625 C-15.88375 5.2740625 -15.88375 5.2740625 -15 6 C-14.360625 5.835 -13.72125 5.67 -13.0625 5.5 C-12.381875 5.335 -11.70125 5.17 -11 5 C-8.75 6.4375 -8.75 6.4375 -7 8 C-5.4166747 6.7511573 -5.4166747 6.7511573 -4 5 C-4 3.68 -4 2.36 -4 1 C-2 0 -2 0 0 0 Z " fill="#F1F1F1" transform="translate(793,502)"/>
<path d="M0 0 C0.8125 2.125 0.8125 2.125 1 5 C-1.46099518 8.87793179 -2.72475748 10.55756892 -7.0625 12.0625 C-10.44299112 11.99057466 -11.59938089 11.30828761 -14 9 C-13.95359375 9.56847656 -13.9071875 10.13695312 -13.859375 10.72265625 C-13.57650029 16.7741545 -14.59410766 19.99759562 -18 25 C-18.99 25 -19.98 25 -21 25 C-20.77183594 24.34773438 -20.54367187 23.69546875 -20.30859375 23.0234375 C-17.97754433 16.10306622 -17.97754433 16.10306622 -19 9 C-20.44730093 6.67780342 -20.44730093 6.67780342 -22 5 C-20.68 4.34 -19.36 3.68 -18 3 C-17.5875 3.515625 -17.175 4.03125 -16.75 4.5625 C-15.88375 5.2740625 -15.88375 5.2740625 -15 6 C-14.360625 5.835 -13.72125 5.67 -13.0625 5.5 C-12.381875 5.335 -11.70125 5.17 -11 5 C-8.75 6.4375 -8.75 6.4375 -7 8 C-5.4166747 6.7511573 -5.4166747 6.7511573 -4 5 C-4 3.68 -4 2.36 -4 1 C-2 0 -2 0 0 0 Z " fill="#F1F1F1" transform="translate(793,182)"/>
<path d="M0 0 C0.8125 2.125 0.8125 2.125 1 5 C-1.46099518 8.87793179 -2.72475748 10.55756892 -7.0625 12.0625 C-10.44299112 11.99057466 -11.59938089 11.30828761 -14 9 C-13.95359375 9.56847656 -13.9071875 10.13695312 -13.859375 10.72265625 C-13.57650029 16.7741545 -14.59410766 19.99759562 -18 25 C-18.99 25 -19.98 25 -21 25 C-20.77183594 24.34773438 -20.54367188 23.69546875 -20.30859375 23.0234375 C-17.97754433 16.10306622 -17.97754433 16.10306622 -19 9 C-20.44730093 6.67780342 -20.44730093 6.67780342 -22 5 C-20.68 4.34 -19.36 3.68 -18 3 C-17.5875 3.515625 -17.175 4.03125 -16.75 4.5625 C-15.88375 5.2740625 -15.88375 5.2740625 -15 6 C-14.360625 5.835 -13.72125 5.67 -13.0625 5.5 C-12.381875 5.335 -11.70125 5.17 -11 5 C-8.75 6.4375 -8.75 6.4375 -7 8 C-5.4166747 6.7511573 -5.4166747 6.7511573 -4 5 C-4 3.68 -4 2.36 -4 1 C-2 0 -2 0 0 0 Z " fill="#F1F1F1" transform="translate(153,182)"/>
<path d="M0 0 C3.75 0.9375 3.75 0.9375 6.75 1.9375 C6.38076923 8.3375 6.38076923 8.3375 3.1875 11.375 C1.9809375 12.1484375 1.9809375 12.1484375 0.75 12.9375 C0.1725 12.4425 -0.405 11.9475 -1 11.4375 C-3.35400629 9.56769987 -3.35400629 9.56769987 -7.25 9.9375 C-9.5 7.9375 -9.5 7.9375 -11.25 5.9375 C-5.12637758 -0.66453043 -5.12637758 -0.66453043 0 0 Z " fill="#FBFBFB" transform="translate(144.25,498.0625)"/>
<path d="M0 0 C3.78536507 3.78536507 4.16841977 9.85154006 5 15 C4.96680167 17.56457113 4.63816471 19.50535615 4 22 C-4.68572311 14.71600742 -4.68572311 14.71600742 -8 11 C-8 8 -8 8 -6.50390625 6.46484375 C-5.86324219 5.96082031 -5.22257812 5.45679688 -4.5625 4.9375 C-1.84124807 2.8328667 -1.84124807 2.8328667 0 0 Z " fill="#221E1F" transform="translate(494,123)"/>
<path d="M0 0 C1.32 0.99 2.64 1.98 4 3 C3.42415568 5.38564077 2.77772405 7.66682784 2 10 C2.61875 9.690625 3.2375 9.38125 3.875 9.0625 C5.25 8.375 6.625 7.6875 8 7 C10.44697666 11.36200187 11.50269348 15.02693484 12 20 C12.99 20 13.98 20 15 20 C14.34 16.37 13.68 12.74 13 9 C15.97 9.33 18.94 9.66 22 10 C21.67 8.68 21.34 7.36 21 6 C19.02 6 17.04 6 15 6 C15 5.67 15 5.34 15 5 C17.6875 4.25 17.6875 4.25 21 4 C23.875 5.9375 23.875 5.9375 26 8 C26.66 6.68 27.32 5.36 28 4 C28.625 5.875 28.625 5.875 29 8 C26.82467143 10.17532857 25.89725531 10.3662254 23 11 C22.01 11.495 22.01 11.495 21 12 C19.32345271 11.72057545 17.65391846 11.39171753 16 11 C16.33 11.99 16.66 12.98 17 14 C17.2295082 20.54098361 17.2295082 20.54098361 16 23 C13.69 22.67 11.38 22.34 9 22 C9.04882812 19.02148438 9.04882812 19.02148438 9.09765625 16.04296875 C9.08263217 13.79694539 9.08263217 13.79694539 8 11 C5.69 11.33 3.38 11.66 1 12 C0.34 10.68 -0.32 9.36 -1 8 C-1.99 8 -2.98 8 -4 8 C-4.33 6.02 -4.66 4.04 -5 2 C-4.566875 2.66 -4.13375 3.32 -3.6875 4 C-2.8521875 4.99 -2.8521875 4.99 -2 6 C-1.01 6 -0.02 6 1 6 C0.67 4.02 0.34 2.04 0 0 Z " fill="#4E4B4B" transform="translate(146,480)"/>
<path d="M0 0 C0.8125 2.125 0.8125 2.125 1 5 C-1.46099518 8.87793179 -2.72475748 10.55756892 -7.0625 12.0625 C-10.44299112 11.99057466 -11.59938089 11.30828761 -14 9 C-14 11.97 -14 14.94 -14 18 C-15.32 18 -16.64 18 -18 18 C-17.9175 16.96875 -17.835 15.9375 -17.75 14.875 C-18.03807561 10.40982801 -19.28644717 8.47673956 -22 5 C-20.68 4.34 -19.36 3.68 -18 3 C-17.5875 3.515625 -17.175 4.03125 -16.75 4.5625 C-15.88375 5.2740625 -15.88375 5.2740625 -15 6 C-14.360625 5.835 -13.72125 5.67 -13.0625 5.5 C-12.381875 5.335 -11.70125 5.17 -11 5 C-8.75 6.4375 -8.75 6.4375 -7 8 C-5.4166747 6.7511573 -5.4166747 6.7511573 -4 5 C-4 3.68 -4 2.36 -4 1 C-2 0 -2 0 0 0 Z " fill="#F2F2F2" transform="translate(793,822)"/>
<path d="M0 0 C0.8125 2.125 0.8125 2.125 1 5 C-1.46099518 8.87793179 -2.72475748 10.55756892 -7.0625 12.0625 C-10.44299112 11.99057466 -11.59938089 11.30828761 -14 9 C-14 11.97 -14 14.94 -14 18 C-15.32 18 -16.64 18 -18 18 C-17.9175 16.96875 -17.835 15.9375 -17.75 14.875 C-18.03807561 10.40982801 -19.28644717 8.47673956 -22 5 C-20.68 4.34 -19.36 3.68 -18 3 C-17.5875 3.515625 -17.175 4.03125 -16.75 4.5625 C-15.88375 5.2740625 -15.88375 5.2740625 -15 6 C-14.360625 5.835 -13.72125 5.67 -13.0625 5.5 C-12.381875 5.335 -11.70125 5.17 -11 5 C-8.75 6.4375 -8.75 6.4375 -7 8 C-5.4166747 6.7511573 -5.4166747 6.7511573 -4 5 C-4 3.68 -4 2.36 -4 1 C-2 0 -2 0 0 0 Z " fill="#F2F2F2" transform="translate(473,822)"/>
<path d="M0 0 C0.8125 2.125 0.8125 2.125 1 5 C-1.46099518 8.87793179 -2.72475748 10.55756892 -7.0625 12.0625 C-10.44299112 11.99057466 -11.59938089 11.30828761 -14 9 C-14 11.97 -14 14.94 -14 18 C-15.32 18 -16.64 18 -18 18 C-17.9175 16.96875 -17.835 15.9375 -17.75 14.875 C-18.03807561 10.40982801 -19.28644717 8.47673956 -22 5 C-20.68 4.34 -19.36 3.68 -18 3 C-17.5875 3.515625 -17.175 4.03125 -16.75 4.5625 C-15.88375 5.2740625 -15.88375 5.2740625 -15 6 C-14.360625 5.835 -13.72125 5.67 -13.0625 5.5 C-12.381875 5.335 -11.70125 5.17 -11 5 C-8.75 6.4375 -8.75 6.4375 -7 8 C-5.4166747 6.7511573 -5.4166747 6.7511573 -4 5 C-4 3.68 -4 2.36 -4 1 C-2 0 -2 0 0 0 Z " fill="#F2F2F2" transform="translate(153,822)"/>
<path d="M0 0 C1.98 0 3.96 0 6 0 C7.76462683 3.08809695 8 4.23312136 8 8 C8.598125 8.0825 9.19625 8.165 9.8125 8.25 C12.5966296 9.20455872 13.43311142 10.57132271 15 13 C-1.57894737 11.42105263 -1.57894737 11.42105263 -5 8 C-4.54625 7.608125 -4.0925 7.21625 -3.625 6.8125 C-1.72357081 4.69167513 -0.93795972 2.66957765 0 0 Z " fill="#312E2E" transform="translate(128,485)"/>
<path d="M0 0 C0.86625 0.495 0.86625 0.495 1.75 1 C4.19883862 2.27075898 4.19883862 2.27075898 8 2 C9.68756133 2.96432076 11.35666496 3.96210419 13 5 C13.66 5 14.32 5 15 5 C14.67 6.32 14.34 7.64 14 9 C10.62537285 8.45276317 8.91765 7.9451 6 6 C6.04640625 6.56847656 6.0928125 7.13695312 6.140625 7.72265625 C6.42349971 13.7741545 5.40589234 16.99759562 2 22 C1.01 22 0.02 22 -1 22 C-0.77183594 21.34773438 -0.54367187 20.69546875 -0.30859375 20.0234375 C2.02245567 13.10306622 2.02245567 13.10306622 1 6 C-0.44730093 3.67780342 -0.44730093 3.67780342 -2 2 C-1.34 1.34 -0.68 0.68 0 0 Z " fill="#F1F1F1" transform="translate(453,185)"/>
<path d="M0 0 C0.66 0.33 1.32 0.66 2 1 C1.40266451 3.04367572 0.79680343 5.08486043 0.1875 7.125 C-0.31716797 8.83042969 -0.31716797 8.83042969 -0.83203125 10.5703125 C-1.96571636 13.89932763 -3.354202 16.89703414 -5 20 C-7.31 18.02 -9.62 16.04 -12 14 C-9.99006295 9.98012591 -8.06153611 7.85483005 -4.875 4.75 C-3.96492188 3.85796875 -3.05484375 2.9659375 -2.1171875 2.046875 C-1.41851562 1.37140625 -0.71984375 0.6959375 0 0 Z " fill="#F0F0F0" transform="translate(498,440)"/>
<path d="M0 0 C3.90285767 1.58667578 6.33520982 4.13350481 9.25 7.125 C10.14203125 8.03507813 11.0340625 8.94515625 11.953125 9.8828125 C12.62859375 10.58148437 13.3040625 11.28015625 14 12 C13.34 13.32 12.68 14.64 12 16 C9 16 9 16 6.08203125 13.375 C4.98449244 12.25750594 3.89492105 11.13214357 2.8125 10 C2.25369141 9.42765625 1.69488281 8.8553125 1.11914062 8.265625 C-0.26073093 6.85037212 -1.63126734 5.42602845 -3 4 C-2.01 2.68 -1.02 1.36 0 0 Z " fill="#FEFEFE" transform="translate(799,785)"/>
<path d="M0 0 C3.90285767 1.58667578 6.33520982 4.13350481 9.25 7.125 C10.14203125 8.03507813 11.0340625 8.94515625 11.953125 9.8828125 C12.62859375 10.58148437 13.3040625 11.28015625 14 12 C13.34 13.32 12.68 14.64 12 16 C9 16 9 16 6.08203125 13.375 C4.98449244 12.25750594 3.89492105 11.13214357 2.8125 10 C2.25369141 9.42765625 1.69488281 8.8553125 1.11914062 8.265625 C-0.26073093 6.85037212 -1.63126734 5.42602845 -3 4 C-2.01 2.68 -1.02 1.36 0 0 Z " fill="#FEFEFE" transform="translate(479,785)"/>
<path d="M0 0 C3.90285767 1.58667578 6.33520982 4.13350481 9.25 7.125 C10.14203125 8.03507813 11.0340625 8.94515625 11.953125 9.8828125 C12.62859375 10.58148437 13.3040625 11.28015625 14 12 C13.34 13.32 12.68 14.64 12 16 C9 16 9 16 6.08203125 13.375 C4.98449244 12.25750594 3.89492105 11.13214357 2.8125 10 C2.25369141 9.42765625 1.69488281 8.8553125 1.11914062 8.265625 C-0.26073093 6.85037212 -1.63126734 5.42602845 -3 4 C-2.01 2.68 -1.02 1.36 0 0 Z " fill="#FEFEFE" transform="translate(159,785)"/>
<path d="M0 0 C3.83247336 1.58492473 6.33086291 4.03116614 9.25 6.9375 C10.14203125 7.81277344 11.0340625 8.68804687 11.953125 9.58984375 C14 12 14 12 14 15 C12.02 15.99 12.02 15.99 10 17 C7.96339574 15.09797311 5.94668664 13.18061509 3.9375 11.25 C3.06641602 10.44175781 3.06641602 10.44175781 2.17773438 9.6171875 C0.52734375 8.015625 0.52734375 8.015625 -2 5 C-1.72165504 2.88311974 -1.52934789 1.52934789 0 0 Z " fill="#343132" transform="translate(159,465)"/>
<path d="M0 0 C3.90285767 1.58667578 6.33520982 4.13350481 9.25 7.125 C10.14203125 8.03507812 11.0340625 8.94515625 11.953125 9.8828125 C12.62859375 10.58148438 13.3040625 11.28015625 14 12 C13.34 13.32 12.68 14.64 12 16 C9 16 9 16 6.08203125 13.375 C4.98449244 12.25750594 3.89492105 11.13214357 2.8125 10 C2.25369141 9.42765625 1.69488281 8.8553125 1.11914062 8.265625 C-0.26073093 6.85037212 -1.63126734 5.42602845 -3 4 C-2.01 2.68 -1.02 1.36 0 0 Z " fill="#FEFEFE" transform="translate(799,465)"/>
<path d="M0 0 C3.83247336 1.58492473 6.33086291 4.03116614 9.25 6.9375 C10.14203125 7.81277344 11.0340625 8.68804687 11.953125 9.58984375 C14 12 14 12 14 15 C12.02 15.99 12.02 15.99 10 17 C7.96339574 15.09797311 5.94668664 13.18061509 3.9375 11.25 C3.06641602 10.44175781 3.06641602 10.44175781 2.17773438 9.6171875 C0.52734375 8.015625 0.52734375 8.015625 -2 5 C-1.72165504 2.88311974 -1.52934789 1.52934789 0 0 Z " fill="#343132" transform="translate(479,145)"/>
<path d="M0 0 C3.90285767 1.58667578 6.33520982 4.13350481 9.25 7.125 C10.14203125 8.03507813 11.0340625 8.94515625 11.953125 9.8828125 C12.62859375 10.58148438 13.3040625 11.28015625 14 12 C13.34 13.32 12.68 14.64 12 16 C9 16 9 16 6.08203125 13.375 C4.98449244 12.25750594 3.89492105 11.13214357 2.8125 10 C2.25369141 9.42765625 1.69488281 8.8553125 1.11914062 8.265625 C-0.26073093 6.85037212 -1.63126734 5.42602845 -3 4 C-2.01 2.68 -1.02 1.36 0 0 Z " fill="#FEFEFE" transform="translate(799,145)"/>
<path d="M0 0 C3.90285767 1.58667578 6.33520982 4.13350481 9.25 7.125 C10.14203125 8.03507813 11.0340625 8.94515625 11.953125 9.8828125 C12.62859375 10.58148438 13.3040625 11.28015625 14 12 C13.34 13.32 12.68 14.64 12 16 C9 16 9 16 6.08203125 13.375 C4.98449244 12.25750594 3.89492105 11.13214357 2.8125 10 C2.25369141 9.42765625 1.69488281 8.8553125 1.11914062 8.265625 C-0.26073093 6.85037212 -1.63126734 5.42602845 -3 4 C-2.01 2.68 -1.02 1.36 0 0 Z " fill="#FEFEFE" transform="translate(159,145)"/>
<path d="M0 0 C0.66 0.33 1.32 0.66 2 1 C3.70363822 1.22622081 5.41328701 1.40888473 7.125 1.5625 C8.03507812 1.64628906 8.94515625 1.73007812 9.8828125 1.81640625 C10.58148438 1.87699219 11.28015625 1.93757813 12 2 C12.33 3.32 12.66 4.64 13 6 C10.36 6 7.72 6 5 6 C5.33 6.66 5.66 7.32 6 8 C6.13415472 10.6723621 6.04318541 13.32250488 6 16 C4.68 16.33 3.36 16.66 2 17 C1.87882812 16.25234375 1.75765625 15.5046875 1.6328125 14.734375 C1.46523438 13.74953125 1.29765625 12.7646875 1.125 11.75 C0.96257812 10.77546875 0.80015625 9.8009375 0.6328125 8.796875 C0.05144152 6.22735883 -0.70840265 4.27928944 -2 2 C-1.34 1.34 -0.68 0.68 0 0 Z " fill="#201C1D" transform="translate(475,484)"/>
<path d="M0 0 C4.52615993 3.67832017 8.39424999 7.41086363 12 12 C7.45804187 11.12654651 5.51166892 10.71065128 2.75 6.875 C2.1725 5.92625 1.595 4.9775 1 4 C0.01 4 -0.98 4 -2 4 C-1.505 4.61875 -1.01 5.2375 -0.5 5.875 C1 8 1 8 1 10 C-0.98 10.66 -2.96 11.32 -5 12 C-6.5625 10.8125 -6.5625 10.8125 -8 9 C-7.6875 6.3125 -7.6875 6.3125 -7 4 C-6.01 4 -5.02 4 -4 4 C-1.81222534 2.0624994 -1.81222534 2.0624994 0 0 Z " fill="#474344" transform="translate(506,437)"/>
<path d="M0 0 C2.75323449 1.05357525 4.1918027 2.5302683 6.25048828 4.63574219 C7.38164062 5.78139648 7.38164062 5.78139648 8.53564453 6.95019531 C9.70160156 8.15385742 9.70160156 8.15385742 10.89111328 9.38183594 C12.08027344 10.59129883 12.08027344 10.59129883 13.29345703 11.82519531 C15.24958374 13.81667371 17.19837047 15.81481315 19.14111328 17.81933594 C19.47111328 16.16933594 19.80111328 14.51933594 20.14111328 12.81933594 C20.47111328 12.81933594 20.80111328 12.81933594 21.14111328 12.81933594 C21.70006436 15.61409132 22.17347833 17.99818228 22.14111328 20.81933594 C20.14365063 23.81552991 18.85218955 24.62540604 15.39111328 25.56933594 C14.27736328 25.69308594 14.27736328 25.69308594 13.14111328 25.81933594 C14.77523771 24.11093312 16.01017422 22.88480547 18.14111328 21.81933594 C16.71465548 18.56067233 14.97407167 16.41685054 12.44580078 13.92871094 C11.73037109 13.21972656 11.01494141 12.51074219 10.27783203 11.78027344 C9.53146484 11.05066406 8.78509766 10.32105469 8.01611328 9.56933594 C7.26201172 8.82425781 6.50791016 8.07917969 5.73095703 7.31152344 C3.87210556 5.47620173 2.00874323 3.64571684 0.14111328 1.81933594 C-0.57443726 2.43639404 -0.57443726 2.43639404 -1.30444336 3.06591797 C-1.93213623 3.60587402 -2.5598291 4.14583008 -3.20654297 4.70214844 C-4.13865601 5.50483154 -4.13865601 5.50483154 -5.08959961 6.32373047 C-6.95776053 7.90291549 -8.873718 9.39001446 -10.85888672 10.81933594 C-9.46843682 7.71491563 -7.84317074 5.45369163 -5.48388672 3.00683594 C-4.89865234 2.38164062 -4.31341797 1.75644531 -3.71044922 1.11230469 C-1.85888672 -0.18066406 -1.85888672 -0.18066406 0 0 Z " fill="#444142" transform="translate(480.85888671875,138.1806640625)"/>
<path d="M0 0 C0.66 -1.32 1.32 -2.64 2 -4 C2.625 -2.125 2.625 -2.125 3 0 C0.82467143 2.17532857 -0.10274469 2.3662254 -3 3 C-3.99 3.495 -3.99 3.495 -5 4 C-6.67654729 3.72057545 -8.34608154 3.39171753 -10 3 C-9.67 3.99 -9.34 4.98 -9 6 C-8.875 9.625 -8.875 9.625 -9 13 C-10 14 -10 14 -12.5625 14.0625 C-13.366875 14.041875 -14.17125 14.02125 -15 14 C-14.67 13.34 -14.34 12.68 -14 12 C-13.01 12 -12.02 12 -11 12 C-11.66 8.37 -12.32 4.74 -13 1 C-10.03 1.33 -7.06 1.66 -4 2 C-4.33 0.68 -4.66 -0.64 -5 -2 C-6.98 -2 -8.96 -2 -11 -2 C-11 -2.33 -11 -2.66 -11 -3 C-6.06995512 -4.74001584 -3.98367078 -3.05723572 0 0 Z " fill="#444142" transform="translate(492,488)"/>
<path d="M0 0 C0.66 -1.32 1.32 -2.64 2 -4 C2.625 -2.125 2.625 -2.125 3 0 C0.82467143 2.17532857 -0.10274469 2.3662254 -3 3 C-3.99 3.495 -3.99 3.495 -5 4 C-6.67654729 3.72057545 -8.34608154 3.39171753 -10 3 C-9.67 3.99 -9.34 4.98 -9 6 C-8.875 9.625 -8.875 9.625 -9 13 C-10 14 -10 14 -12.5625 14.0625 C-13.366875 14.041875 -14.17125 14.02125 -15 14 C-14.67 13.34 -14.34 12.68 -14 12 C-13.01 12 -12.02 12 -11 12 C-11.66 8.37 -12.32 4.74 -13 1 C-10.03 1.33 -7.06 1.66 -4 2 C-4.33 0.68 -4.66 -0.64 -5 -2 C-6.98 -2 -8.96 -2 -11 -2 C-11 -2.33 -11 -2.66 -11 -3 C-6.06995512 -4.74001584 -3.98367078 -3.05723572 0 0 Z " fill="#444142" transform="translate(492,168)"/>
<path d="M0 0 C1.65 1.65 3.3 3.3 5 5 C4.01 6.32 3.02 7.64 2 9 C2.99 9.33 3.98 9.66 5 10 C6.32 8.68 7.64 7.36 9 6 C8.25 8.4375 8.25 8.4375 7 11 C4.09879049 12.3005422 1.14412969 12.08733694 -2 12 C-2.66 9.03 -3.32 6.06 -4 3 C-2.68 3 -1.36 3 0 3 C0 2.01 0 1.02 0 0 Z " fill="#3D393A" transform="translate(518,449)"/>
<path d="M0 0 C1.32 0.99 2.64 1.98 4 3 C3.42415568 5.38564077 2.77772405 7.66682784 2 10 C2.61875 9.690625 3.2375 9.38125 3.875 9.0625 C5.25 8.375 6.625 7.6875 8 7 C11.00559652 12.00932754 11.29341888 15.32723489 11 21 C10.67 21 10.34 21 10 21 C9.34 17.7 8.68 14.4 8 11 C6.9275 11.185625 5.855 11.37125 4.75 11.5625 C1.59608454 11.9304568 -0.09818492 12.04465343 -3 11 C-2.67 9.35 -2.34 7.7 -2 6 C-1.01 6 -0.02 6 1 6 C0.67 4.02 0.34 2.04 0 0 Z " fill="#403D3E" transform="translate(466,160)"/>
<path d="M0 0 C0.66 -1.32 1.32 -2.64 2 -4 C2.625 -2.125 2.625 -2.125 3 0 C0.82467143 2.17532857 -0.10274469 2.3662254 -3 3 C-3.99 3.495 -3.99 3.495 -5 4 C-6.67654729 3.72057545 -8.34608154 3.39171753 -10 3 C-9.67 3.99 -9.34 4.98 -9 6 C-8.96045766 8.33299825 -8.95598268 10.66708189 -9 13 C-9.66 13.33 -10.32 13.66 -11 14 C-11.66 13.34 -12.32 12.68 -13 12 C-12.34 12 -11.68 12 -11 12 C-11.66 8.37 -12.32 4.74 -13 1 C-10.03 1.33 -7.06 1.66 -4 2 C-4.33 0.68 -4.66 -0.64 -5 -2 C-6.98 -2 -8.96 -2 -11 -2 C-11 -2.33 -11 -2.66 -11 -3 C-6.06995512 -4.74001584 -3.98367078 -3.05723572 0 0 Z " fill="#474344" transform="translate(172,488)"/>
<path d="M0 0 C3.36591866 1.44253657 5.51047079 3.33264727 8 6 C7.34 7.32 6.68 8.64 6 10 C3 10 3 10 0.25 7.75 C-2 5 -2 5 -1.875 2.75 C-1 1 -1 1 0 0 Z " fill="#373334" transform="translate(485,471)"/>
<path d="M0 0 C5.29012124 4.40843437 10.18808428 9.07559794 15 14 C9 14 9 14 7 13 C7 11.68 7 10.36 7 9 C5.25925466 7.21005931 5.25925466 7.21005931 3 5.75 C2.2575 5.22921875 1.515 4.7084375 0.75 4.171875 C0.1725 3.78515625 -0.405 3.3984375 -1 3 C-1.7425 3.825 -2.485 4.65 -3.25 5.5 C-6 8 -6 8 -10 8 C-10.33 7.01 -10.66 6.02 -11 5 C-10.01 5 -9.02 5 -8 5 C-4.99573665 3.74014763 -2.55434537 2.00698565 0 0 Z " fill="#474445" transform="translate(471,149)"/>
<path d="M0 0 C2.64 0.33 5.28 0.66 8 1 C7.01 1.495 7.01 1.495 6 2 C8.1018786 5.8376235 10.45558004 8.62076153 13.625 11.625 C17.88958991 15.66876972 17.88958991 15.66876972 19 19 C16.60490662 21.89932357 14.68754757 22.50168276 11 23 C12.63412443 21.29159719 13.86906094 20.06546953 16 19 C14.64361505 15.95748968 13.12719349 13.89732168 10.7421875 11.58203125 C10.11699219 10.96779297 9.49179688 10.35355469 8.84765625 9.72070312 C8.19667969 9.09099609 7.54570312 8.46128906 6.875 7.8125 C5.57860552 6.55035469 4.28421518 5.28614638 2.9921875 4.01953125 C2.41839355 3.46370361 1.84459961 2.90787598 1.25341797 2.33520508 C0 1 0 1 0 0 Z " fill="#454243" transform="translate(163,461)"/>
<path d="M0 0 C0.33 0.99 0.66 1.98 1 3 C-1.97 5.97 -4.94 8.94 -8 12 C-8.66 10.68 -9.32 9.36 -10 8 C-9.34 7.67 -8.68 7.34 -8 7 C-10.475 6.01 -10.475 6.01 -13 5 C-13 4.67 -13 4.34 -13 4 C-8.71 2.68 -4.42 1.36 0 0 Z " fill="#3C3939" transform="translate(452,496)"/>
<path d="M0 0 C2.49361571 1.20381448 4.68143083 2.45428722 7 4 C6 6 5 8 4 10 C3.34 10 2.68 10 2 10 C0.7109375 8.46875 0.7109375 8.46875 -0.625 6.5 C-1.07101562 5.8503125 -1.51703125 5.200625 -1.9765625 4.53125 C-2.48316406 3.77328125 -2.48316406 3.77328125 -3 3 C-2.01 2.01 -1.02 1.02 0 0 Z " fill="#FCFCFC" transform="translate(479,465)"/>
<path d="M0 0 C2.86697492 1.28519565 4.97607712 2.57129254 7 5 C7 5.66 7 6.32 7 7 C2.545 7.495 2.545 7.495 -2 8 C-2 4.8734367 -1.4292493 3.67984243 0 1 C0 0.67 0 0.34 0 0 Z " fill="#393536" transform="translate(479,478)"/>
<path d="M0 0 C5.66129431 4.69766975 10.85228904 9.74723372 16 15 C10 15 10 15 8 14 C8 12.68 8 11.36 8 10 C6.25276722 8.09948599 6.25276722 8.09948599 4 6.4375 C1.75 4.68359375 1.75 4.68359375 0 3 C0 2.01 0 1.02 0 0 Z " fill="#474344" transform="translate(150,468)"/>
<path d="M0 0 C2.42130331 2.42130331 2.52840504 3.80111377 3.125 7.125 C3.29257812 8.03507813 3.46015625 8.94515625 3.6328125 9.8828125 C3.81457031 10.93082031 3.81457031 10.93082031 4 12 C2.82460004 11.07347299 1.65989423 10.13336613 0.5 9.1875 C-0.1496875 8.66542969 -0.799375 8.14335937 -1.46875 7.60546875 C-3 6 -3 6 -3 3 C-1.5 1.3125 -1.5 1.3125 0 0 Z " fill="#393637" transform="translate(495,128)"/>
<path d="M0 0 C3.4375 1.3125 3.4375 1.3125 7 3 C7.33 3.99 7.66 4.98 8 6 C6.02 6.66 4.04 7.32 2 8 C0.4375 6.8125 0.4375 6.8125 -1 5 C-0.6875 2.3125 -0.6875 2.3125 0 0 Z " fill="#3E3B3C" transform="translate(499,441)"/>
<path d="M0 0 C2.90703436 1.2332873 3.65606908 3.13245971 5.0625 5.875 C3.0825 6.865 3.0825 6.865 1.0625 7.875 C-0.64634005 6.25160195 -2.31196717 4.58180947 -3.9375 2.875 C-3.9375 2.215 -3.9375 1.555 -3.9375 0.875 C-1.9375 -0.125 -1.9375 -0.125 0 0 Z " fill="#EBEBEB" transform="translate(141.9375,498.125)"/>
<path d="M0 0 C1.32 0.99 2.64 1.98 4 3 C3.60196439 5.88575819 3.20990931 6.82189513 0.9375 8.75 C-0.0215625 9.36875 -0.0215625 9.36875 -1 10 C-1 9.34 -1 8.68 -1 8 C-1.99 8 -2.98 8 -4 8 C-4.33 6.02 -4.66 4.04 -5 2 C-4.566875 2.66 -4.13375 3.32 -3.6875 4 C-2.8521875 4.99 -2.8521875 4.99 -2 6 C-1.01 6 -0.02 6 1 6 C0.67 4.02 0.34 2.04 0 0 Z " fill="#423F3F" transform="translate(146,480)"/>
<path d="M0 0 C1.9375 0.25 1.9375 0.25 4 1 C4.66 1.99 5.32 2.98 6 4 C5.01 4.99 4.02 5.98 3 7 C1.68 6.34 0.36 5.68 -1 5 C-1 1 -1 1 0 0 Z " fill="#343031" transform="translate(152,474)"/>
<path d="M0 0 C1.9375 0.25 1.9375 0.25 4 1 C4.66 1.99 5.32 2.98 6 4 C5.01 4.99 4.02 5.98 3 7 C1.68 6.34 0.36 5.68 -1 5 C-1 1 -1 1 0 0 Z " fill="#343031" transform="translate(472,154)"/>
<path d="M0 0 C1.21386936 3.64160808 0.6674695 4.33165469 -0.9375 7.6875 C-1.31777344 8.49574219 -1.69804687 9.30398438 -2.08984375 10.13671875 C-2.39019531 10.75160156 -2.69054687 11.36648438 -3 12 C-3.99 10.68 -4.98 9.36 -6 8 C-4.02 5.36 -2.04 2.72 0 0 Z " fill="#FAFAFA" transform="translate(497,445)"/>
<path d="M0 0 C1.65 0 3.3 0 5 0 C4.01 0.495 4.01 0.495 3 1 C3.165 1.515625 3.33 2.03125 3.5 2.5625 C4.15049 5.73363876 4.0620734 8.77218334 4 12 C3.01 12.495 3.01 12.495 2 13 C1.34 12.34 0.68 11.68 0 11 C0.66 11 1.32 11 2 11 C1.34 7.37 0.68 3.74 0 0 Z " fill="#3B3738" transform="translate(159,489)"/>
<path d="M0 0 C1.65 1.32 3.3 2.64 5 4 C0.545 4.495 0.545 4.495 -4 5 C-4 4.01 -4 3.02 -4 2 C-2.68 1.34 -1.36 0.68 0 0 Z " fill="#2F2B2C" transform="translate(161,481)"/>
<path d="M0 0 C2.31 0 4.62 0 7 0 C6.2884375 0.61875 6.2884375 0.61875 5.5625 1.25 C3.81264784 3.20983441 3.56788417 4.48508441 3 7 C2.34 7.66 1.68 8.32 1 9 C0.67 6.03 0.34 3.06 0 0 Z " fill="#454243" transform="translate(466,181)"/>
<path d="M0 0 C1.65 1.32 3.3 2.64 5 4 C0.545 4.495 0.545 4.495 -4 5 C-4 4.01 -4 3.02 -4 2 C-2.68 1.34 -1.36 0.68 0 0 Z " fill="#2F2B2C" transform="translate(481,161)"/>
<path d="M0 0 C3.875 1.75 3.875 1.75 5 4 C4.34 4 3.68 4 3 4 C2.01 6.64 1.02 9.28 0 12 C-1.03159626 8.90521121 -0.97482862 7.47368607 -0.5625 4.3125 C-0.46066406 3.50425781 -0.35882813 2.69601562 -0.25390625 1.86328125 C-0.17011719 1.24839844 -0.08632813 0.63351562 0 0 Z " fill="#413E3F" transform="translate(459,511)"/>
<path d="M0 0 C0.33 0.66 0.66 1.32 1 2 C2.98 2 4.96 2 7 2 C7.33 3.32 7.66 4.64 8 6 C4.62537285 5.45276317 2.91765 4.9451 0 3 C0 2.01 0 1.02 0 0 Z " fill="#353132" transform="translate(502,448)"/>
<path d="M0 0 C0.33 0 0.66 0 1 0 C1.04241723 2.33294775 1.04092937 4.66702567 1 7 C0 8 0 8 -2.5625 8.0625 C-3.366875 8.041875 -4.17125 8.02125 -5 8 C-4.67 7.34 -4.34 6.68 -4 6 C-3.01 6 -2.02 6 -1 6 C-1.020625 5.195625 -1.04125 4.39125 -1.0625 3.5625 C-1 1 -1 1 0 0 Z " fill="#3B3839" transform="translate(482,494)"/>
<path d="M0 0 C1.98 0.495 1.98 0.495 4 1 C4.33 3.31 4.66 5.62 5 8 C3.02 6.35 1.04 4.7 -1 3 C-0.01 2.67 0.98 2.34 2 2 C1.34 1.34 0.68 0.68 0 0 Z " fill="#474344" transform="translate(500,458)"/>
<path d="M0 0 C0.33 0 0.66 0 1 0 C1.04241723 2.33294775 1.04092937 4.66702567 1 7 C0 8 0 8 -2.5625 8.0625 C-3.366875 8.041875 -4.17125 8.02125 -5 8 C-4.67 7.34 -4.34 6.68 -4 6 C-3.01 6 -2.02 6 -1 6 C-1.020625 5.195625 -1.04125 4.39125 -1.0625 3.5625 C-1 1 -1 1 0 0 Z " fill="#3B3839" transform="translate(482,174)"/>
<path d="M0 0 C1.9375 0.6875 1.9375 0.6875 4 2 C4.75 4.625 4.75 4.625 5 7 C3.02 5.35 1.04 3.7 -1 2 C-0.67 1.34 -0.34 0.68 0 0 Z " fill="#201C1D" transform="translate(449,509)"/>
<path d="M0 0 C2.88575819 0.39803561 3.82189513 0.79009069 5.75 3.0625 C6.1625 3.701875 6.575 4.34125 7 5 C4.69 4.34 2.38 3.68 0 3 C0 2.01 0 1.02 0 0 Z " fill="#403D3E" transform="translate(511,444)"/>
<path d="M0 0 C2.125 0.9375 2.125 0.9375 4 2 C4 2.99 4 3.98 4 5 C3.01 5.495 3.01 5.495 2 6 C0.68 4.35 -0.64 2.7 -2 1 C-1.34 0.67 -0.68 0.34 0 0 Z " fill="#221E1F" transform="translate(456,502)"/>
<path d="M0 0 C1.32 0.99 2.64 1.98 4 3 C3.67 4.32 3.34 5.64 3 7 C2.34 7 1.68 7 1 7 C0.67 4.69 0.34 2.38 0 0 Z " fill="#433F40" transform="translate(466,160)"/>
<path d="M0 0 C1.0625 1.8125 1.0625 1.8125 2 4 C1.67 4.99 1.34 5.98 1 7 C0.34 6.67 -0.32 6.34 -1 6 C-1 5.34 -1 4.68 -1 4 C-1.66 4 -2.32 4 -3 4 C-2 2 -2 2 0 0 Z " fill="#4C494A" transform="translate(499,142)"/>
</svg>
